<?xml version="1.0" encoding="utf-8"?>
<!-- Generator: Adobe Illustrator 19.0.0, SVG Export Plug-In . SVG Version: 6.00 Build 0)  -->
<!DOCTYPE svg PUBLIC "-//W3C//DTD SVG 1.1//EN" "http://www.w3.org/Graphics/SVG/1.1/DTD/svg11.dtd">
<svg version="1.1" id="Layer_1" xmlns="http://www.w3.org/2000/svg" xmlns:xlink="http://www.w3.org/1999/xlink" x="0px" y="0px"
	 viewBox="0 0 530.4 276" style="enable-background:new 0 0 530.4 276;" xml:space="preserve">
<style type="text/css">
	.shoe_st0{fill:#122D1D;}
	.shoe_st1{fill:#20AB93;}
	.shoe_st2{fill:#195F3C;}
	.shoe_st3{fill:#FFFFFF;}
	.shoe_st4{fill:#92D3C9;}
	.shoe_st5{fill:#CDEAEB;}
</style>
<g>
	<path class="shoe_st0" d="M514.8,115c1.6,18.9,1.6,44.6,3.6,63.4c1.4,13,6.9,19.7,8.7,27.6c6.6,29.1-9.5,40.9-35.2,46.5
		c-43.7,9.5-90.4,2.1-134.9,2.8c-55.6,0.9-109.4,16.6-164.1,20.6c-61.3,4.5-183.1-28.2-191.6-92.5c2-46.5,48.2-33.9,82.6-35.3
		c16.3-0.6,33.6-2.6,48.8-9.1c6.8-2.9,14.8-7.3,20.3-12.1c1.1-0.9,5.4-3.9,7-6.2c-0.4-17.7,15.9-11.1,16.9-6.4
		c3.6-2.2,7.3-3.6,9.6-5.1c-0.2-2.3-0.4-4.6-0.7-6.9c1.3-9.7,15.2-7.8,16-2.7c3-2.4,10.2-3,9.6-12.3c-0.2-2.5,6.3-10.8,15-5.4
		c5.6-3.7,6.1-5.2,9.5-7.2c-2.6-5.6,2.1-8.6,4.7-10.2c3.2-2,5.9-2.7,9.7-1.2c2.6-1,3.9-3.7,7.1-6.9c-4.3-8.1,1.3-11.2,4.5-12.9
		c2.5-1.3,7.3-1,9.2,0.2c2.4-1.6,3.7-4,6.8-6.2c-6.4-12.1,7-17.1,13.4-13.4c1.2-1.3,3.5-3.5,5.4-6.1c10.2-13.4,13.9-28.2,32.8-7.3
		c12.8,14.2,9,36.3,19.7,51.1c25.5,35.1,81.2,10.2,111-3.8c44.4-20.8,52,18.9,54.7,53.4"/>
	<path class="shoe_st1" d="M192.7,235.5c-34.1,2.3-68,0.6-101.3-7.5c-22.1-5.3-42.9-14.2-62.1-26.4c-1.5-0.9-2.5-3.3-2.9-5.1
		c-1.6-7.4-3-14.9-4.4-22.3c-1.7-6-3.4-12-5.2-18.5c0.9-0.6,2.5-1.8,4.2-2.8c9.1-4.9,9.2-4.8,15.3,3.2c7.6,10,17.3,17.7,28.6,22.8
		c30.9,13.9,63.1,19.7,96.8,13.3c2.3-0.4,4.5-1.1,6.8-1.8c12.3-3.9,17.9-19.3,10.6-30.1c-2.8-4.1-6.7-7.3-10-11.1
		c-5.1-5.9-10.2-11.8-15.2-17.8c-0.6-0.8-0.6-2.1-0.1-3.3c5,5.5,9.9,11,14.9,16.3c2.5,2.6,5.2,4.3,9.1,1.7c2.7-1.8,7.9,2.2,7.4,5.5
		c-0.6,4.5,2,5.9,5.6,5.6c6.7-0.6,12-4,15.5-9.7c2.5-4,0.1-7.1-5-7.5c-2.2-0.2-4.4-1.2-6.5-1.8c0-0.5,0.1-0.9,0.1-1.4
		c2.3-1.3,4.5-2.6,6.8-3.8c4.9-2.6,9.1-0.1,9.4,5.6c0.2,3.7,2.6,5.2,5.7,4.8c6.4-0.8,11.9-3.4,15.3-9.2c2.7-4.5,1-7.2-4.2-7.8
		c-2.5-0.3-5-1.5-7.5-2.2c0-0.5,0.1-0.9,0.1-1.4c3.2-2,6.4-4.1,9.7-5.9c2.4-1.3,6.1,1.7,6.2,4.7c0.2,5.1,1.7,6.6,6.7,5.9
		c5.9-0.8,10.7-3.7,13.9-8.7c1-1.5,1.3-4.3,0.5-5.9c-0.6-1.2-3.3-1.4-5-2.1c-2.4-0.9-4.8-1.8-8.3-3.1c4.4-3.1,7.4-5.4,10.6-7.4
		c3.2-2.1,6.4-0.3,6.5,3.5c0.1,4.8,1.8,6.4,6.5,5.7c5.8-1,10.9-3.5,14-8.7c1-1.6,1.3-4.4,0.6-6c-0.5-1.2-3.3-1.5-5-2.2
		c-2.3-0.9-4.6-1.8-8.2-3.1c4.6-3.4,8.1-6,12.2-9c0.8,9.8,4.4,11.8,12.4,7.6c3.2-1.7,6.1-4,8.5-6.7c1.2-1.3,1.7-4.2,1-5.8
		c-0.5-1.3-3.1-2.1-4.9-2.7c-1.6-0.5-3.5-0.5-5.2-0.6c-0.1-0.5-0.1-1-0.2-1.4c2.8-2.3,5.5-4.6,8.4-7c1.8,6.5,3.8,8.1,9.8,5.9
		c4-1.5,7.8-4.4,11-7.3c1.4-1.3,2-4.7,1.3-6.5c-0.5-1.3-3.8-1.6-5.8-2.2c-0.9-0.3-1.9-0.1-4.2-0.3c4.6-4,8.3-7.3,12.2-10.7
		c1.5,2.1,3,3.7,4,5.6c7.8,15.9,22.3,24.4,36.8,32.5c35.8,20.3,72.9,20.4,110.7,6c4.3-1.6,6.6-3.9,7.6-8.7c1.3-5.8,3.8-11.3,6-16.9
		c1.5-3.7,4.3-4.3,7-1.6c8.7,8.7,13.1,27.7,13.6,34.6c0.6,4.4-2.8,6.2-5.4,8.9c-10.9,11.8-20.6,20.8-29.7,35.9c-3,5-5.6,10.9-7,16.7
		c-1.5,6.4,2.2,11.8,8.7,13c12.2,2.2,24.5,3.7,37.6,5.6c1,5,2.2,11.3,3.5,17.8c-13.6,5.5-27.8,7.1-42.1,7.2
		c-25.9,0.2-51.8-0.5-77.8-0.5c-7.8,0-15.6,1.1-23.4,1.6c-2.2,0.1-3.7,1.1-6.2,0.8c-1.2,0.6-3.6,0.3-5.3,0.7
		c-12.5,2.8-25,5.3-37.5,8.3c-21.6,5.3-43.1,11.1-64.7,16.2c-9.8,2.3-20,3.4-30,5.1"/>
	<path class="shoe_st2" d="M514.8,149.4c-0.2,3.3-0.5,6.5-0.8,10.5c-8.3,1.7-17.1,2.8-25.9,0.2c-1.2-0.4-2.8-3.2-2.5-4.4
		c1.2-3.9,2.6-8,5.1-11.1c6.8-8.6,14.1-16.7,21.9-25.7c0.8,5.4,1.4,9.5,2,13.7C514.7,138.2,514.8,143.8,514.8,149.4z M470.2,55.2
		c-7.6,3.7-12.6,5.9-20,10c-3.6,2-14.6,5.9-18.5,7.2c-13.4,4.9-21.6,7.9-37,9.5c-11.2-0.7-14.3,1.8-32.9-6
		c12.7,7.5,26.4,12.9,40.9,16.4c21.3,5.1,41.3,2,60.1-8.9c3.8-2.2,7.5-5.7,9.5-9.5c3.4-6.4,5.5-13.6,8.3-21.2
		C477.4,53.5,473.4,53.7,470.2,55.2z"/>
	<path class="shoe_st3" d="M293,25.6c2.4-4.9,5.7-4.8,9.9-2.8c8,3.8,14.1,9.7,19.7,16.3c0.6,0.7,0.5,3-0.1,3.7c-2.9,2.9-6.1,5.5-9.5,8.4
		C304.3,43.9,298.1,35.1,293,25.6z M229.6,81.9c-0.8,0.8-1.3,3.2-0.7,4c4.5,6.7,9.3,13.2,14.2,20.1c4.7-3.3,8.4-5.9,11.8-8.3
		c-6.4-7.1-12.3-13.8-18.7-20.9C234,78.5,231.5,79.9,229.6,81.9z M290.6,70.3c4-3.3,7-5.8,9.6-7.9c-7.4-7.7-14.6-15.1-22-22.7
		c-1.8,1.6-3.7,3.3-6.6,5.9C278.1,54,284.3,62,290.6,70.3z M278,80.4c-6.8-7.4-13.4-14.5-20.3-21.8c-1.9,1.6-4.1,3.5-6.8,5.8
		c5.8,7.9,11.5,15.5,17.4,23.6C272.3,84.9,275.2,82.6,278,80.4z M229.1,115.2c-6-6.8-11.7-13.3-17.6-20.1c-2.6,1.8-5.3,3.7-8.8,6.1
		c5.3,6.9,10.4,13.6,15.6,20.5C222.6,119.1,225.8,117.2,229.1,115.2z M186.6,111.1c-2.7,1.5-5.5,3-8.9,4.9c3,4.2,5.4,7.9,8.3,11.3
		c7.9,9.6,4.8,9.2,17.2,2.6C197.6,123.6,192.3,117.6,186.6,111.1z M172,144.1c1,0.9,3.4,0.3,5.6,0.4c-5.5-6.6-10.3-12.1-14.8-17.8
		c-2.2-2.8-3.8-1.6-7,0.9C161.4,133.4,166.5,138.9,172,144.1z"/>
	<path class="shoe_st4" d="M100.8,148c13.8-1.9,22-4.2,34.8-9.5c3.7-1.8,11.3-6.9,14-8.2c8.1,8.6,15.7,17.1,23.8,25.2
		c7.1,7.1,8.8,15.2,5.4,24.2c-1.1,2.9-3.8,6.6-6.5,7.4c-8.7,2.5-17.7,4.7-26.7,5.5c-21.8,1.9-43.1-1.8-63.8-8.6
		c-11.7-3.8-22.9-9-32.5-17.1c-6.2-5.2-11-8.8-14.8-16.7c3.5-0.1,14.3-1.3,17.2-1.2c9.8,0.5,10.8,0.9,20.6,0.8
		C81.6,149.7,91.6,148.9,100.8,148z M307.7,22.4c12.7,7.5,20.4,19.5,28.5,31.4c3.8,5.6,9.2,10,14.4,15.6c-3-7-6.4-10.5-8.4-16.5
		c-2.3-6.6-3-15.8-5.2-22.4c-3-9.4-6.8-17.1-14-24.2c-4.9-4.8-10-6.7-14.5-2.2c-3.8,3.9-5.3,9.4-9,14.4
		C303.8,20.4,305.2,20.9,307.7,22.4z M482.6,56.7c-3.3,4.8-4.7,10.8-7.1,16.2c-1.2,2.7-2.3,6.1-4.6,7.7c-6.1,4.4-12.7,8-20.5,12.8
		c9.8-3.1,18.2-6,26.7-8.5c3.5-1,4.8-3.3,5.9-6.5c2.5-7.5,5.5-14.8,8.4-22.3C487.1,54.7,485.1,53.1,482.6,56.7z M514.1,113.2
		c-0.6-3.5-1.3-7.1-2-11.1c-4.4,4.2-8.5,7.9-12.3,11.8c-4.5,4.7-8.9,9.4-12.9,14.5c-4.5,5.7-9,11.6-12.4,18
		c-5.6,10.3-6.6,20.6,10.9,22.8c9.9,1.3,19.9,2,30.5,3.1c-0.6-4.6-0.9-7.6-1.2-10.3c-7,0.3-13.4,1.2-19.6,0.8
		c-12.1-0.8-14.7-5.9-7.5-15.9c6.2-8.5,13.5-16.3,20.5-24.2c2.7-3,5.7-5.5,5.8-9.8C514,113,514.1,113.3,514.1,113.2z M211.8,116.8
		c-4.1-4.7-7.4-10.2-11-15.4c-2.2-3.1-4.8-5-8.8-2.9c-5.5,2.8-6.3,6-2.5,11.7c7.2,10.6,16.7,18.9,26.9,26.4c6.2,4.5,7.2,4.4,13-1.9
		C223.4,128.6,217.3,123,211.8,116.8z M278.8,58.8c-3-3.5-5.2-7.7-7.8-11.5c-2.3-3.3-5.2-3.9-8.7-2c-4.8,2.5-5.8,5.8-2.6,10.6
		c7.2,11,16.6,19.8,27.5,27.2c6.7,4.5,7.1,4.5,12.7-1.4C292.6,73.9,285.5,66.5,278.8,58.8z M225,84.5c-2.5-4-6.2-3-9.6-0.7
		c-3.5,2.4-4.1,5.3-1.8,9c7.2,11.5,17.1,20.2,27.9,28.1c6.5,4.7,7,4.7,13.5-2.2C242.6,109.1,233.1,97.4,225,84.5z M291.3,27.7
		c-2.2-3.9-6.5-3.6-10.4-0.7c-3.5,2.7-3.3,5.6-1,9.1c7.4,11.2,17.1,20.2,28.1,27.9c6.2,4.3,7.2,4.3,12.8-2.5
		C308.9,51.6,298.9,40.7,291.3,27.7z M268.4,90.1c-6.1-7.2-11.7-14.8-17.4-22.3c-3.4-4.5-6-5.1-10.4-2.1c-4.1,2.8-4.4,5.8-0.8,11.1
		c7,10.3,16.1,18.4,26.2,25.6c7.1,5.1,7.2,5.1,13.9-1.6C275.9,97.1,271.7,94,268.4,90.1z M198.2,143.2c-6.7-7.5-13.4-15.1-19.9-22.7
		c-1.7-2-2.7-4.6-4.4-6.6c-3.7-4.1-10.5-3.1-11.9,2.2c-0.7,2.5,0.6,6.1,2.2,8.5c7.1,10.6,16.7,18.7,26.9,26.2c5.3,3.9,7.8,3.4,12-3
		C201.5,146.3,199.7,144.9,198.2,143.2z"/>
	<path class="shoe_st5" d="M511.2,244.8c-49.4,18.2-88,8.3-135.1,8.7c-54.2,0.4-113.9,11.1-160.5,18.4c-29.6,4.2-55.8,2.4-60,1.7
		c-43.5-6.8-56.3-12.1-78.6-20.6c-26.4-10.1-100-51.3-62.1-96.1c4.2,11.3,6.8,21.3,8.8,33.2c2.3,13.6,5.6,14.2,18,20.9
		c23.7,12.8,48.9,20.8,75.6,24.5c54.1,7.6,110.6,1.7,163.7-10.1c54-12,73.6-25.8,158.4-23.9c14.1,0.3,28.2,1.4,42.3,0.5
		c6.4-0.4,12.8-1,19.1-2.2c1.6-0.3,19.1-6,20.5-5.3c3.7,1.7,5.9,16.8,6.1,20.3c0.7,13-5.3,21.5-8.1,24.3
		C515.8,242.3,514,243.8,511.2,244.8z"/>
</g>
</svg>
