<?xml version="1.0" encoding="utf-8"?>
<!-- Generator: Adobe Illustrator 19.0.0, SVG Export Plug-In . SVG Version: 6.00 Build 0)  -->
<!DOCTYPE svg PUBLIC "-//W3C//DTD SVG 1.1//EN" "http://www.w3.org/Graphics/SVG/1.1/DTD/svg11.dtd">
<svg version="1.1" id="Layer_1" xmlns="http://www.w3.org/2000/svg" xmlns:xlink="http://www.w3.org/1999/xlink" x="0px" y="0px"
	 viewBox="0 0 204.1 118.6" style="enable-background:new 0 0 204.1 118.6;" xml:space="preserve">
<style type="text/css">
	.st0shoe{fill:url(#sole_x5F_radial_1_);}
	.st1shoe{fill:url(#sole_x5F_linear_1_);}
	.st3shoe{fill:rgba(100,100,100,1.0);}
</style>
<g id="shoe_side_svg" class="shoe_side_svg">
	
		<radialGradient id="sole_x5F_radial_1_" cx="95.7144" cy="86.084" r="83.3287" fx="47.6461" fy="86.7253" gradientUnits="userSpaceOnUse">
		<stop  offset="3.611888e-003" style="stop-color:#BE1E2D"/>
		<stop  offset="0.7505" style="stop-color:#F9ED32"/>
	</radialGradient>
	<path id="sole_x5F_radial" class="st0shoe" d="M89.7,94.4c2.8,0,5.5,0.1,8.3,0c4.4-0.1,8.7-0.5,13.1-0.6c4.6-0.1,9.3,0.1,14,0.2
		c3.7,0.1,7.4,0.3,11.1,0.4c4.6,0.1,9.1,0.1,13.7,0c2.2,0,4.4-0.4,6.6-0.6c1.4-0.1,2.8-0.1,4.1-0.3c2.4-0.2,4.8-0.6,7.1-0.8
		c2.1-0.5,4.2-1,6.1-1.7c3.2-1.2,5.9-3.2,7.2-6.7c0.1-4-1.8-7.1-3.5-10.3c-0.5-1-1.1-1-2-0.3c-1.8,1.4-3.7,2.5-5.6,3.8
		c-2.3,0.8-4.6,1.4-6.8,2.1c-3.6,1.1-7.4,0.5-11.1,1.3c-9-0.3-17.9-1-26.9-0.5c-2.1,0.4-4.2,0.5-6.3,0.7c-1.4,0.2-2.9,0.4-4.3,0.5
		c-1.7,0.2-3.4,0.3-5.1,0.5c-3.2,0.4-6.4,1-9.7,1.3c-6.5,0.7-12.9,1.2-19.4,1.4c-0.3,0-0.6,0-0.9,0c-4.3-0.4-8.7-0.1-13-1
		c-2.5-0.5-5.1-0.7-7.6-1.1c-2.2-0.4-4.4-1.2-6.6-1.7c-1.9-0.6-4-1.1-5.9-1.9c-1.5-0.6-3-1.3-4.4-2.1c-2-1.2-4-2.3-5.9-3.7
		c-2.2-1.7-4.2-3.6-5.6-6c-0.8-1.4-1.4-2.9-2.1-4.4c-0.8-1.6-0.9-3.3-1-5.1c0-0.6-0.5-0.7-0.9-0.4c-0.5,0.4-0.9,0.9-1.2,1.5
		c-1,1.9-1.8,3.9-1.9,6c0,1-0.2,1.9-0.1,2.9c0.1,1.8,1.2,3.2,2.2,4.6c2.1,2.8,4.7,5.1,7.6,7.1c2.5,1.7,5.1,3.3,7.7,4.9
		c3.5,1.7,7.1,3.1,10.7,4.6c2.5,0.7,4.9,1.6,7.4,2.1c3.8,0.8,7.5,1.6,11.3,2.2c5.3,0.9,10.7,1.2,16,1.2
		C87.3,94.4,88.5,94.4,89.7,94.4z"/>
	<linearGradient id="sole_x5F_linear_1_" gradientUnits="userSpaceOnUse" x1="23.1464" y1="75.7506" x2="180.9492" y2="75.7506">
		<stop  offset="0" style="stop-color:rgba(100,100,100,1.0);"/>
		<stop  offset="1" style="stop-color:rgba(100,100,100,1.0);"/>
	</linearGradient>
	<path id="sole_x5F_linear" class="st1shoe" d="M89.7,94.4c2.8,0,5.5,0.1,8.3,0c4.4-0.1,8.7-0.5,13.1-0.6c4.6-0.1,9.3,0.1,14,0.2
		c3.7,0.1,7.4,0.3,11.1,0.4c4.6,0.1,9.1,0.1,13.7,0c2.2,0,4.4-0.4,6.6-0.6c1.4-0.1,2.8-0.1,4.1-0.3c2.4-0.2,4.8-0.6,7.1-0.8
		c2.1-0.5,4.2-1,6.1-1.7c3.2-1.2,5.9-3.2,7.2-6.7c0.1-4-1.8-7.1-3.5-10.3c-0.5-1-1.1-1-2-0.3c-1.8,1.4-3.7,2.5-5.6,3.8
		c-2.3,0.8-4.6,1.4-6.8,2.1c-3.6,1.1-7.4,0.5-11.1,1.3c-9-0.3-17.9-1-26.9-0.5c-2.1,0.4-4.2,0.5-6.3,0.7c-1.4,0.2-2.9,0.4-4.3,0.5
		c-1.7,0.2-3.4,0.3-5.1,0.5c-3.2,0.4-6.4,1-9.7,1.3c-6.5,0.7-12.9,1.2-19.4,1.4c-0.3,0-0.6,0-0.9,0c-4.3-0.4-8.7-0.1-13-1
		c-2.5-0.5-5.1-0.7-7.6-1.1c-2.2-0.4-4.4-1.2-6.6-1.7c-1.9-0.6-4-1.1-5.9-1.9c-1.5-0.6-3-1.3-4.4-2.1c-2-1.2-4-2.3-5.9-3.7
		c-2.2-1.7-4.2-3.6-5.6-6c-0.8-1.4-1.4-2.9-2.1-4.4c-0.8-1.6-0.9-3.3-1-5.1c0-0.6-0.5-0.7-0.9-0.4c-0.5,0.4-0.9,0.9-1.2,1.5
		c-1,1.9-1.8,3.9-1.9,6c0,1-0.2,1.9-0.1,2.9c0.1,1.8,1.2,3.2,2.2,4.6c2.1,2.8,4.7,5.1,7.6,7.1c2.5,1.7,5.1,3.3,7.7,4.9
		c3.5,1.7,7.1,3.1,10.7,4.6c2.5,0.7,4.9,1.6,7.4,2.1c3.8,0.8,7.5,1.6,11.3,2.2c5.3,0.9,10.7,1.2,16,1.2
		C87.3,94.4,88.5,94.4,89.7,94.4z"/>
	<path id="shoe" class="st3shoe" d="M79.2,58.3c0.2-0.2,0.4-0.5,0.6-0.6c3.4-1.5,6.8-2.9,10.2-4.5c1.8-0.8,3.5-1.9,5.3-2.8c1.9-1,3.7-2,5.6-3
		c1.7-0.9,3.4-1.9,5.1-2.8c1.9-1,3.8-2,5.7-2.9c1.2-0.5,2.4-1,3.6-1.2c0.9-0.2,1.9-0.1,2.8,0.1c0.7,0.1,1.4,0.5,2.1,0.7
		c1.7,0.6,2.6,2.1,3.7,3.3c1.6,1.7,3.4,3,5.5,3.9c1.8,0.8,3.6,1.6,5.5,2.2c1.7,0.5,3.5,0.7,5.2,1.2c2.4,0.6,4.9,0.7,7.3,0.7
		c3.2,0,6.3-0.6,9.4-1.5c4.1-1.2,7.5-3.3,10.6-6.1c0.3-0.3,0.6-0.6,0.9-0.9c1.3-1.4,1.3-1.9,0.2-3.4c-1.1-1.5-2.4-2.8-4.1-3.5
		c-1.3-0.6-2.7-0.4-3.9,1c-1.3,1.4-2.6,2.9-4.1,4.2c-1,0.9-2.2,1.5-3.3,2.1c-3.2,1.7-6.8,2-10.3,1.6c-1.8-0.2-3.5-0.8-5.2-1.3
		c-1.3-0.5-2.7-1-3.9-1.8c-1.5-0.9-2.9-1.9-4.2-3c-1.1-0.9-2-2.1-2.9-3.1c-1-1.1-2.2-1.9-3.6-2.5c-1.3-0.6-2.5-0.6-3.9-0.6
		c-0.3,0-0.6-0.2-0.8-0.4c-0.1-0.1,0.2-0.5,0.3-0.7c0.7-1.1,1.2-2.2,0.7-3.7c-1-2.9-3.1-4.8-5.6-6.3c-1.6-0.9-2.1-0.8-3,0.9
		c-1.6,3-3.2,6-5.5,8.5c-2.5,2.8-5.2,5.5-7.9,8.2c-2.2,2.2-4.5,4.2-6.9,6.2c-1.1,0.9-2.4,1.5-3.6,2.2c-1.4,0.8-2.8,1.5-4.2,2.2
		c-1.2,0.6-2.4,1.2-3.6,1.8c-1.5,0.8-2.9,1.5-4.4,2.3c-1.6,0.9-3.3,1.7-4.9,2.7c-1.1,0.6-2.2,1.2-3.1,2c-2.5,1.9-5.2,2.5-8.2,1.8
		c-0.6-0.1-1.3-0.2-1.9-0.2c-2.1-0.3-4.2-0.5-6.3-1c-2.8-0.7-5.6-1.5-8.2-2.9c-1.1-0.6-2.3-0.9-3.4-1.3c-1.3-0.4-2.6-0.9-3.9-1
		c-1.3-0.2-2.6-0.1-3.9,0c-0.7,0-0.9,0.6-0.9,1.2c0.1,5.6,2.5,10.1,6.6,13.8c3,2.7,6.5,4.7,10.4,6.1c2.1,0.8,4.2,1.5,6.3,2.2
		c1.4,0.4,2.9,0.7,4.4,1c1.7,0.3,3.4,0.7,5.1,1c2.5,0.4,5,0.7,7.5,1c6.2,0.9,12.4,0.7,18.7,0.3c4.1-0.3,8.3-0.9,12.4-1.4
		c3.2-0.4,6.3-0.7,9.5-1.1c5.6-0.8,11.2-1.5,16.8-1.5c4.8,0,9.6,0.1,14.5,0.1c5.2,0,10.4,0.1,15.6-0.1c2.1-0.1,4.1-0.7,6.1-1.2
		c1.3-0.3,2.7-0.6,3.9-1.2c1.7-0.8,3.2-1.8,4.8-2.8c0.3-0.2,0.6-0.3,0.7-0.6c0.4-0.5,0.9-1,1-1.5c0.6-4.2,0.8-8.4,0.2-12.6
		c-0.3-2.1-0.8-4.2-1.4-6.3c-0.4-1.4-1.1-2.8-1.8-4.2c-0.3-0.6-0.7-0.6-1.2-0.2c-1.1,1-2.1,2-3.3,2.9c-2.3,1.7-4.8,3.1-7.7,4
		c-1.4,0.4-2.8,0.9-4.3,1.3c-0.6,0.2-1.2,0.2-1.9,0.3c-4.5,0.7-9,0.6-13.4-0.3c-2.5-0.5-4.9-1.3-7.3-2.1c-3.1-0.9-5.9-2.4-8.4-4.4
		c-0.9-0.7-1.7-1.5-2.4-2.3c-1.2-1.5-2.8-2.1-4.5-2.4c-1.6-0.3-3.1,0.5-4.6,1c-1.7,0.6-3.5,1.4-5.2,2.1c-1.5,0.7-2.9,1.5-4.4,2.2
		c-1.3,0.6-2.6,1.3-3.8,1.9c-1.5,0.7-3,1.5-4.5,2.2c-0.7,0.4-1.5,0.8-2.2,1.1c-2.5,1-5.1,1.9-7.6,2.9c-1.1,0.4-2.3,0.9-3.4,1.2
		c-0.6,0.2-1.3,0.1-1.9,0.1C79.3,58.5,79.3,58.4,79.2,58.3z"/>
</g>
</svg>
