<?xml version="1.0" encoding="utf-8"?>
<!-- Generator: Adobe Illustrator 19.0.0, SVG Export Plug-In . SVG Version: 6.00 Build 0)  -->
<!DOCTYPE svg PUBLIC "-//W3C//DTD SVG 1.1//EN" "http://www.w3.org/Graphics/SVG/1.1/DTD/svg11.dtd">
<svg version="1.1" xmlns="http://www.w3.org/2000/svg" xmlns:xlink="http://www.w3.org/1999/xlink" x="0px" y="0px"
	 viewBox="-215 157 221 481" style="enable-background:new -215 157 221 481;" xml:space="preserve">
<style type="text/css">
	.st0{display:none;}
	.st1{display:inline;}
	.st2{opacity:0;fill:#CECECE;}
	.st3{opacity:2.000000e-002;fill:#CFCFCF;}
	.st4{opacity:4.000000e-002;fill:#D0D0D0;}
	.st5{opacity:6.000000e-002;fill:#D1D1D1;}
	.st6{opacity:8.000000e-002;fill:#D2D2D2;}
	.st7{opacity:0.1;fill:#D3D3D3;}
	.st8{opacity:0.12;fill:#D4D4D4;}
	.st9{opacity:0.14;fill:#D5D5D5;}
	.st10{opacity:0.16;fill:#D6D6D6;}
	.st11{opacity:0.18;fill:#D7D7D7;}
	.st12{opacity:0.2;fill:#D8D8D8;}
	.st13{opacity:0.22;fill:#D9D9D9;}
	.st14{opacity:0.24;fill:#DADADA;}
	.st15{opacity:0.26;fill:#DBDBDB;}
	.st16{opacity:0.28;fill:#DCDCDC;}
	.st17{opacity:0.3;fill:#DDDDDD;}
	.st18{opacity:0.32;fill:#DEDEDE;}
	.st19{opacity:0.34;fill:#DFDFDF;}
	.st20{opacity:0.36;fill:#E0E0E0;}
	.st21{opacity:0.38;fill:#E1E1E1;}
	.st22{opacity:0.4;fill:#E2E2E2;}
	.st23{opacity:0.42;fill:#E3E3E3;}
	.st24{opacity:0.44;fill:#E4E4E4;}
	.st25{opacity:0.46;fill:#E5E5E5;}
	.st26{opacity:0.48;fill:#E6E6E6;}
	.st27{opacity:0.5;fill:#E7E7E7;}
	.st28{opacity:0.52;fill:#E7E7E7;}
	.st29{opacity:0.54;fill:#E8E8E8;}
	.st30{opacity:0.56;fill:#E9E9E9;}
	.st31{opacity:0.58;fill:#EAEAEA;}
	.st32{opacity:0.6;fill:#EBEBEB;}
	.st33{opacity:0.62;fill:#ECECEC;}
	.st34{opacity:0.64;fill:#EDEDED;}
	.st35{opacity:0.66;fill:#EEEEEE;}
	.st36{opacity:0.68;fill:#EFEFEF;}
	.st37{opacity:0.7;fill:#F0F0F0;}
	.st38{opacity:0.72;fill:#F1F1F1;}
	.st39{opacity:0.74;fill:#F2F2F2;}
	.st40{opacity:0.76;fill:#F3F3F3;}
	.st41{opacity:0.78;fill:#F4F4F4;}
	.st42{opacity:0.8;fill:#F5F5F5;}
	.st43{opacity:0.82;fill:#F6F6F6;}
	.st44{opacity:0.84;fill:#F7F7F7;}
	.st45{opacity:0.86;fill:#F8F8F8;}
	.st46{opacity:0.88;fill:#F9F9F9;}
	.st47{opacity:0.9;fill:#FAFAFA;}
	.st48{opacity:0.92;fill:#FBFBFB;}
	.st49{opacity:0.94;fill:#FCFCFC;}
	.st50{opacity:0.96;fill:#FDFDFD;}
	.st51{opacity:0.98;fill:#FEFEFE;}
	.st52{fill:#FFFFFF;}
</style>

<g id="Layer_2" style='opacity:.9;'>
	<g>
		<path class="st2" d="M-148.3,631c-45.3,0-65-45.4-65-75.3c0-48.2,33.3-95.2,33.3-131.3s-33.3-77.8-33.3-160.2
			c0-72.8,36.3-105.1,78.3-105.1c50.3,0,139.5,53.5,139.5,163.7C4.5,379.5-25,452.1-39,494.3C-52.9,536.5-78.3,631-148.3,631z"/>
		<path class="st3" d="M-213.2,264.1c0-72.8,36.4-104.9,78.2-104.9c50.2,0,139.3,53.6,139.3,163.5c0,56.8-29.5,129.3-43.5,171.5
			c-13.9,42.2-39.3,136.6-109.1,136.6c-45.2,0-64.8-45.2-64.8-75.1c0-48.2,33.3-95.2,33.3-131.3S-213.2,346.5-213.2,264.1z"/>
		<path class="st4" d="M-213,264.1c0-72.8,36.4-104.8,78-104.8c50.1,0,139.1,53.7,139.1,163.4c0,56.8-29.5,129.2-43.5,171.4
			c-13.9,42.2-39.3,136.5-108.9,136.5c-45,0-64.7-45-64.7-74.9c0-48.2,33.3-95.2,33.3-131.3S-213,346.5-213,264.1z"/>
		<path class="st5" d="M-212.8,264.1c0-72.8,36.5-104.6,77.8-104.6c49.9,0,138.9,53.8,138.9,163.2c0,56.8-29.5,129.1-43.5,171.3
			c-13.9,42.2-39.2,136.4-108.7,136.4c-44.9,0-64.6-44.8-64.6-74.7c0-48.2,33.3-95.2,33.3-131.3S-212.8,346.5-212.8,264.1z"/>
		<path class="st6" d="M-212.6,264.1c0-72.8,36.5-104.5,77.6-104.5c49.8,0,138.8,53.9,138.8,163.1c0,56.8-29.4,128.9-43.4,171.1
			c-13.9,42.2-39.2,136.3-108.6,136.3c-44.7,0-64.4-44.6-64.4-74.5c0-48.2,33.3-95.2,33.3-131.3S-212.6,346.5-212.6,264.1z"/>
		<path class="st7" d="M-212.4,264.1c0-72.8,36.5-104.3,77.4-104.3c49.7,0,138.6,54,138.6,162.9c0,56.8-29.4,128.8-43.4,171
			C-53.7,535.9-79,630-148.2,630c-44.6-0.1-64.3-44.4-64.3-74.3c0-48.2,33.3-95.2,33.3-131.3S-212.4,346.5-212.4,264.1z"/>
		<path class="st8" d="M-212.3,264.1c0-72.8,36.6-104.1,77.3-104.1C-85.5,160,3.4,214,3.4,322.8C3.4,379.6-26,451.4-40,493.6
			c-13.9,42.2-39.2,136.1-108.2,136.1c-44.4-0.1-64.1-44.2-64.1-74.1c0-48.2,33.3-95.2,33.3-131.3S-212.3,346.5-212.3,264.1z"/>
		<path class="st9" d="M-212.1,264.1c0-72.8,36.6-104,77.1-104c49.4,0,138.2,54.1,138.2,162.7c0,56.8-29.4,128.5-43.4,170.7
			c-13.9,42.2-39.1,136.1-108,136.1c-44.2-0.1-63.9-44-63.9-73.9c0-48.2,33.3-95.1,33.3-131.2S-212.1,346.5-212.1,264.1z"/>
		<path class="st10" d="M-211.9,264.1c0-72.8,36.6-103.8,76.9-103.8c49.3,0,138,54.2,138,162.5c0,56.8-29.4,128.4-43.4,170.6
			c-13.9,42.2-39.1,136-107.8,136c-44.1-0.1-63.8-43.8-63.8-73.7c0-48.2,33.3-95.1,33.3-131.2S-211.9,346.5-211.9,264.1z"/>
		<path class="st11" d="M-211.7,264.1c0-72.8,36.7-103.7,76.7-103.7c49.2,0,137.9,54.3,137.9,162.4c0,56.8-29.4,128.2-43.4,170.4
			c-13.9,42.2-39.1,135.9-107.6,135.9c-43.9-0.1-63.6-43.6-63.6-73.5c0-48.2,33.3-95.1,33.3-131.2S-211.7,346.5-211.7,264.1z"/>
		<path class="st12" d="M-211.6,264.1c0-72.8,36.7-103.5,76.6-103.5c49,0,137.7,54.4,137.7,162.2c0,56.8-29.4,128.1-43.4,170.3
			c-13.9,42.2-39,135.8-107.4,135.8c-43.8-0.1-63.5-43.3-63.5-73.2c0-48.2,33.3-95.1,33.3-131.2S-211.6,346.5-211.6,264.1z"/>
		<path class="st13" d="M-211.4,264.1c0-72.8,36.8-103.3,76.4-103.3c48.9,0,137.5,54.5,137.5,162.1c0,56.8-29.4,128-43.4,170.2
			c-13.9,42.2-39,135.7-107.2,135.7c-43.6-0.1-63.4-43.1-63.4-73c0-48.2,33.3-95.1,33.3-131.2S-211.4,346.5-211.4,264.1z"/>
		<path class="st14" d="M-211.2,264.1c0-72.8,36.8-103.2,76.2-103.2c48.8,0,137.3,54.6,137.3,161.9c0,56.8-29.3,127.8-43.3,170
			c-13.9,42.2-39,135.6-107,135.6c-43.5-0.1-63.2-42.9-63.2-72.8c0-48.2,33.3-95.1,33.3-131.2S-211.2,346.5-211.2,264.1z"/>
		<path class="st15" d="M-211,264.1c0-72.8,36.8-103,76-103c48.6,0,137.2,54.7,137.2,161.8c0,56.8-29.3,127.7-43.3,169.9
			C-55.1,535-80.1,628.3-148,628.3c-43.3-0.1-63.1-42.7-63.1-72.6c0-48.2,33.4-95.1,33.4-131.2S-211,346.5-211,264.1z"/>
		<path class="st16" d="M-210.9,264.1c0-72.8,36.9-102.9,75.9-102.9c48.5,0,137,54.8,137,161.7c0,56.8-29.3,127.6-43.3,169.8
			C-55.3,534.9-80.3,628.1-148,628.1c-43.1-0.1-62.9-42.5-62.9-72.4c0-48.2,33.4-95.1,33.4-131.2S-210.9,346.5-210.9,264.1z"/>
		<path class="st17" d="M-210.7,264.1c0-72.8,36.9-102.7,75.7-102.7c48.4,0,136.8,54.9,136.8,161.5c0,56.8-29.3,127.4-43.3,169.6
			c-13.9,42.2-38.9,135.4-106.4,135.4c-43-0.2-62.8-42.3-62.8-72.2c0-48.2,33.4-95,33.4-131.1S-210.7,346.5-210.7,264.1z"/>
		<path class="st18" d="M-210.5,264.1c0-72.8,37-102.5,75.5-102.5c48.2,0,136.6,55,136.6,161.4c0,56.8-29.3,127.3-43.3,169.5
			c-13.9,42.2-38.9,135.3-106.2,135.3c-42.8-0.2-62.6-42.1-62.6-72c0-48.2,33.4-95,33.4-131.1S-210.5,346.5-210.5,264.1z"/>
		<path class="st19" d="M-210.3,264.1c0-72.8,37-102.4,75.3-102.4c48.1,0,136.4,55.1,136.4,161.2c0,56.8-29.3,127.2-43.3,169.4
			c-13.9,42.2-38.8,135.2-106,135.2c-42.7-0.2-62.4-41.9-62.4-71.8c0-48.2,33.4-95,33.4-131.1S-210.3,346.5-210.3,264.1z"/>
		<path class="st20" d="M-210.2,264.1c0-72.8,37-102.2,75.2-102.2C-87,161.9,1.3,217,1.3,323C1.3,379.8-28,450-42,492.2
			c-13.9,42.2-38.8,135.1-105.8,135.1c-42.5-0.2-62.3-41.7-62.3-71.6c0-48.2,33.4-95,33.4-131.1S-210.2,346.5-210.2,264.1z"/>
		<path class="st21" d="M-210,264.1c0-72.8,37.1-102.1,75-102.1C-87.1,162,1.1,217.3,1.1,323c0,56.8-29.3,126.9-43.3,169.1
			c-13.9,42.2-38.8,135-105.6,135c-42.4-0.2-62.2-41.5-62.2-71.4c0-48.2,33.4-95,33.4-131.1S-210,346.5-210,264.1z"/>
		<path class="st22" d="M-209.8,264.1c0-72.8,37.1-101.9,74.8-101.9c47.7,0,135.9,55.3,135.9,160.8c0,56.8-29.3,126.8-43.3,169
			c-13.9,42.2-38.8,134.9-105.4,134.9c-42.2-0.2-62-41.3-62-71.2c0-48.2,33.4-95,33.4-131.1S-209.8,346.5-209.8,264.1z"/>
		<path class="st23" d="M-209.6,264.1c0-72.8,37.2-101.7,74.6-101.7c47.6,0,135.7,55.4,135.7,160.7c0,56.8-29.2,126.6-43.2,168.8
			C-56.4,534-81.3,626.7-147.8,626.7c-42-0.2-61.9-41.1-61.9-71c0-48.2,33.4-95,33.4-131.1S-209.6,346.5-209.6,264.1z"/>
		<path class="st24" d="M-209.4,264.1c0-72.8,37.2-101.6,74.4-101.6C-87.5,162.5,0.5,218,0.5,323c0,56.8-29.2,126.5-43.2,168.7
			c-13.9,42.2-38.7,134.7-105.1,134.7c-41.9-0.2-61.7-40.8-61.7-70.7c0-48.2,33.4-95,33.4-131.1S-209.4,346.5-209.4,264.1z"/>
		<path class="st25" d="M-209.3,264.1c0-72.8,37.2-101.4,74.3-101.4c47.3,0,135.4,55.6,135.4,160.4c0,56.8-29.2,126.4-43.2,168.6
			c-13.9,42.2-38.7,134.7-104.9,134.7c-41.7-0.2-61.6-40.6-61.6-70.5c0-48.2,33.4-94.9,33.4-131S-209.3,346.5-209.3,264.1z"/>
		<path class="st26" d="M-209.1,264.1c0-72.8,37.3-101.3,74.1-101.3c47.2,0,135.2,55.7,135.2,160.2C0.2,379.9-29,449.3-43,491.5
			c-13.9,42.2-38.6,134.6-104.7,134.6c-41.6-0.2-61.4-40.4-61.4-70.3c0-48.2,33.4-94.9,33.4-131S-209.1,346.5-209.1,264.1z"/>
		<path class="st27" d="M-208.9,264.1c0-72.8,37.3-101.1,73.9-101.1c47.1,0,135,55.8,135,160.1c0,56.8-29.2,126.1-43.2,168.3
			c-13.9,42.2-38.6,134.5-104.5,134.5c-41.4-0.3-61.3-40.2-61.3-70.1c0-48.2,33.4-94.9,33.4-131S-208.9,346.5-208.9,264.1z"/>
		<path class="st28" d="M-208.7,264.1c0-72.8,37.4-100.9,73.7-100.9c46.9,0,134.8,55.9,134.8,159.9c0,56.8-29.2,125.9-43.2,168.1
			C-57.3,533.4-82,625.6-147.6,625.6c-41.3-0.3-61.1-40-61.1-69.9c0-48.2,33.4-94.9,33.4-131S-208.7,346.5-208.7,264.1z"/>
		<path class="st29" d="M-208.6,264.1c0-72.8,37.4-100.8,73.6-100.8c46.8,0,134.6,56,134.6,159.8c0,56.8-29.2,125.8-43.2,168
			c-13.9,42.2-38.6,134.3-104.1,134.3c-41.1-0.3-61-39.8-61-69.7c0-48.2,33.4-94.9,33.4-131S-208.6,346.5-208.6,264.1z"/>
		<path class="st30" d="M-208.4,264.1c0-72.8,37.4-100.6,73.4-100.6c46.7,0,134.5,56.1,134.5,159.7c0,56.8-29.2,125.7-43.2,167.9
			c-13.9,42.2-38.5,134.2-103.9,134.2c-40.9-0.3-60.8-39.6-60.8-69.5c0-48.2,33.4-94.9,33.4-131S-208.4,346.5-208.4,264.1z"/>
		<path class="st31" d="M-208.2,264.1c0-72.8,37.5-100.5,73.2-100.5c46.5,0,134.3,56.2,134.3,159.5c0,56.8-29.1,125.5-43.1,167.7
			C-57.8,533.1-82.4,625-147.6,625c-40.8-0.3-60.7-39.4-60.7-69.3c0-48.2,33.4-94.9,33.4-131S-208.2,346.5-208.2,264.1z"/>
		<path class="st32" d="M-208,264.1c0-72.8,37.5-100.3,73-100.3c46.4,0,134.1,56.3,134.1,159.4C-0.9,380-30,448.6-44,490.8
			c-13.9,42.2-38.5,134-103.5,134c-40.6-0.3-60.5-39.2-60.5-69.1c0-48.2,33.4-94.9,33.4-131S-208,346.5-208,264.1z"/>
		<path class="st33" d="M-207.9,264.1c0-72.8,37.6-100.1,72.9-100.1c46.3,0,133.9,56.4,133.9,159.2c0,56.8-29.1,125.3-43.1,167.5
			c-13.9,42.2-38.4,134-103.3,134c-40.5-0.3-60.4-39-60.4-68.9c0-48.2,33.4-94.8,33.4-130.9S-207.9,346.5-207.9,264.1z"/>
		<path class="st34" d="M-207.7,264.1c0-72.8,37.6-100,72.7-100c46.2,0,133.7,56.4,133.7,159.1c0,56.8-29.1,125.1-43.1,167.3
			c-13.9,42.2-38.4,133.9-103.1,133.9c-40.3-0.3-60.2-38.8-60.2-68.7c0-48.2,33.4-94.8,33.4-130.9S-207.7,346.5-207.7,264.1z"/>
		<path class="st35" d="M-207.5,264.1c0-72.8,37.6-99.8,72.5-99.8c46,0,133.6,56.5,133.6,158.9c0,56.8-29.1,125-43.1,167.2
			c-13.9,42.2-38.4,133.8-102.9,133.8c-40.2-0.3-60-38.5-60-68.4c0-48.2,33.4-94.8,33.4-130.9S-207.5,346.5-207.5,264.1z"/>
		<path class="st36" d="M-207.3,264.1c0-72.8,37.7-99.7,72.3-99.7c45.9,0,133.4,56.6,133.4,158.8c0,56.8-29.1,124.9-43.1,167.1
			C-58.6,532.5-83.1,624-147.4,624c-40-0.3-59.9-38.3-59.9-68.2c0-48.2,33.4-94.8,33.4-130.9S-207.3,346.5-207.3,264.1z"/>
		<path class="st37" d="M-207.1,264.1c0-72.8,37.7-99.5,72.1-99.5c45.8,0,133.2,56.7,133.2,158.7c0,56.8-29.1,124.7-43.1,166.9
			c-13.9,42.2-38.3,133.6-102.5,133.6c-39.9-0.4-59.8-38.1-59.8-68c0-48.2,33.4-94.8,33.4-130.9S-207.1,346.5-207.1,264.1z"/>
		<path class="st38" d="M-207,264.1c0-72.8,37.7-99.3,72-99.3c45.6,0,133,56.8,133,158.5C-2,380.1-31,447.9-45,490.1
			c-13.9,42.2-38.3,133.5-102.3,133.5c-39.7-0.4-59.6-37.9-59.6-67.8c0-48.2,33.4-94.8,33.4-130.9S-207,346.5-207,264.1z"/>
		<path class="st39" d="M-206.8,264.1c0-72.8,37.8-99.2,71.8-99.2c45.5,0,132.8,56.9,132.8,158.4c0,56.8-29.1,124.5-43.1,166.7
			c-13.9,42.2-38.3,133.4-102.1,133.4c-39.5-0.4-59.4-37.7-59.4-67.6c0-48.2,33.4-94.8,33.4-130.9S-206.8,346.5-206.8,264.1z"/>
		<path class="st40" d="M-206.6,264.1c0-72.8,37.8-99,71.6-99c45.4,0,132.7,57,132.7,158.2c0,56.8-29,124.3-43,166.5
			C-59.3,532-83.6,623.2-147.3,623.2c-39.4-0.4-59.3-37.5-59.3-67.4c0-48.2,33.4-94.8,33.4-130.9S-206.6,346.5-206.6,264.1z"/>
		<path class="st41" d="M-206.4,264.1c0-72.8,37.9-98.9,71.4-98.9c45.2,0,132.5,57.1,132.5,158.1c0,56.8-29,124.2-43,166.4
			C-59.5,531.9-83.8,623-147.3,623c-39.2-0.4-59.1-37.3-59.1-67.2c0-48.2,33.4-94.7,33.4-130.8S-206.4,346.5-206.4,264.1z"/>
		<path class="st42" d="M-206.3,264.1c0-72.8,37.9-98.7,71.3-98.7c45.1,0,132.3,57.2,132.3,157.9c0,56.8-29,124.1-43,166.3
			c-13.9,42.2-38.2,133.2-101.5,133.2c-39.1-0.4-59-37.1-59-67c0-48.2,33.4-94.7,33.4-130.8S-206.3,346.5-206.3,264.1z"/>
		<path class="st43" d="M-206.1,264.1c0-72.8,37.9-98.5,71.1-98.5c45,0,132.1,57.3,132.1,157.8c0,56.8-29,123.9-43,166.1
			C-59.8,531.7-84,622.6-147.2,622.6c-38.9-0.4-58.8-36.9-58.8-66.8c0-48.2,33.4-94.7,33.4-130.8S-206.1,346.5-206.1,264.1z"/>
		<path class="st44" d="M-205.9,264.1c0-72.8,38-98.4,70.9-98.4c44.8,0,131.9,57.4,131.9,157.6c0,56.8-29,123.8-43,166
			c-13.9,42.2-38.1,133-101.2,133c-38.8-0.4-58.7-36.7-58.7-66.6c0-48.2,33.4-94.7,33.4-130.8S-205.9,346.5-205.9,264.1z"/>
		<path class="st45" d="M-205.7,264.1c0-72.8,38-98.2,70.7-98.2c44.7,0,131.8,57.5,131.8,157.5c0,56.8-29,123.6-43,165.8
			c-13.9,42.2-38.1,132.9-101,132.9c-38.6-0.4-58.6-36.5-58.6-66.4c0-48.2,33.4-94.7,33.4-130.8S-205.7,346.5-205.7,264.1z"/>
		<path class="st46" d="M-205.6,264.1c0-72.8,38.1-98.1,70.6-98.1c44.6,0,131.6,57.5,131.6,157.4c0,56.8-29,123.5-43,165.7
			c-13.9,42.2-38.1,132.8-100.8,132.8c-38.4-0.4-58.4-36.3-58.4-66.2c0-48.2,33.4-94.7,33.4-130.8S-205.6,346.5-205.6,264.1z"/>
		<path class="st47" d="M-205.4,264.1c0-72.8,38.1-97.9,70.4-97.9c44.5,0,131.4,57.6,131.4,157.2c0,56.8-29,123.4-43,165.6
			c-13.9,42.2-38,132.7-100.6,132.7c-38.3-0.5-58.3-36-58.3-65.9c0-48.2,33.4-94.7,33.4-130.8S-205.4,346.5-205.4,264.1z"/>
		<path class="st48" d="M-205.2,264.1c0-72.8,38.1-97.7,70.2-97.7c44.3,0,131.2,57.7,131.2,157.1c0,56.8-28.9,123.2-42.9,165.4
			c-13.9,42.2-38,132.6-100.4,132.6c-38.1-0.5-58.1-35.8-58.1-65.7c0-48.2,33.4-94.7,33.4-130.8S-205.2,346.5-205.2,264.1z"/>
		<path class="st49" d="M-205,264.1c0-72.8,38.2-97.6,70-97.6c44.2,0,131,57.8,131,156.9c0,56.8-28.9,123.1-42.9,165.3
			c-13.9,42.2-38,132.6-100.2,132.6c-38-0.5-57.9-35.6-57.9-65.5c0-48.2,33.4-94.6,33.4-130.7S-205,346.5-205,264.1z"/>
		<path class="st50" d="M-204.9,264.1c0-72.8,38.2-97.4,69.9-97.4c44.1,0,130.9,57.9,130.9,156.8c0,56.8-28.9,123-42.9,165.2
			c-13.9,42.2-38,132.5-100,132.5c-37.8-0.5-57.8-35.4-57.8-65.3c0-48.2,33.4-94.6,33.4-130.7S-204.9,346.5-204.9,264.1z"/>
		<path class="st51" d="M-204.7,264.1c0-72.8,38.3-97.3,69.7-97.3c43.9,0,130.7,58,130.7,156.6c0,56.8-28.9,122.8-42.9,165
			c-13.9,42.2-37.9,132.4-99.8,132.4c-37.7-0.5-57.6-35.2-57.6-65.1c0-48.2,33.4-94.6,33.4-130.7S-204.7,346.5-204.7,264.1z"/>
		<path class="st52" d="M-147,620.7c-37.5-0.5-57.5-35-57.5-64.9c0-48.2,33.4-94.6,33.4-130.7s-33.4-78.6-33.4-161
			c0-72.8,38.3-97.1,69.5-97.1c43.8,0,130.5,58.1,130.5,156.5c0,56.8-28.9,122.7-42.9,164.9C-61.3,530.6-85.3,620.7-147,620.7z"/>
	</g>
</g>
</svg>
