<?xml version="1.0" encoding="utf-8"?>
<!-- Generator: Adobe Illustrator 19.0.0, SVG Export Plug-In . SVG Version: 6.00 Build 0)  -->
<!DOCTYPE svg PUBLIC "-//W3C//DTD SVG 1.1//EN" "http://www.w3.org/Graphics/SVG/1.1/DTD/svg11.dtd">
<svg version="1.1" id="Layer_1" xmlns="http://www.w3.org/2000/svg" xmlns:xlink="http://www.w3.org/1999/xlink" x="0px" y="0px"
	 viewBox="-285 167 39.7 460" style="enable-background:new -285 167 39.7 460;" xml:space="preserve">
<style type="text/css">
	.sole_side_st0{clip-path:url(#SVGID_2_);}
	.sole_side_st1{fill:#39B54A;}
</style>
<g>
	<defs>
		<path id="SVGID_1_" d="M-280.4,620.7c0-26.8-4.6-46.5-4.6-66.1c0-19.6,10.8-82.4,11.8-100.7S-263,309.1-261,271.2s0-104,0-104
			c4.3-0.5,6.9-0.1,6.9-0.1c3.8,43.9,8.9,103.7,8.9,160.2c0,69.2-6,77-5.8,109.4c0.3,36.5,6.4,64.3,5.8,110.1
			c-0.6,45.8-8.3,74-8.3,74L-280.4,620.7L-280.4,620.7z"/>
	</defs>
	<clipPath id="SVGID_2_">
		<use xlink:href="#SVGID_1_"  style="overflow:visible;"/>
	</clipPath>
	<g class="sole_side_st0">
		<rect id="c19_91_" x="-285" y="167" class="sole_side_st1" width="39.7" height="10"/>
		<rect id="c19_90_" x="-285" y="177" class="sole_side_st1" width="39.7" height="10"/>
		<rect id="c19_89_" x="-285" y="187" class="sole_side_st1" width="39.7" height="10"/>
		<rect id="c19_88_" x="-285" y="197" class="sole_side_st1" width="39.7" height="10"/>
		<rect id="c19_87_" x="-285" y="207" class="sole_side_st1" width="39.7" height="10"/>
		<rect id="c19_86_" x="-285" y="217" class="sole_side_st1" width="39.7" height="10"/>
		<rect id="c19_85_" x="-285" y="227" class="sole_side_st1" width="39.7" height="10"/>
		<rect id="c19_84_" x="-285" y="237" class="sole_side_st1" width="39.7" height="10"/>
		<rect id="c19_83_" x="-285" y="247" class="sole_side_st1" width="39.7" height="10"/>
		<rect id="c19_82_" x="-285" y="257" class="sole_side_st1" width="39.7" height="10"/>
		<rect id="c19_81_" x="-285" y="267" class="sole_side_st1" width="39.7" height="10"/>
		<rect id="c19_80_" x="-285" y="277" class="sole_side_st1" width="39.7" height="10"/>
		<rect id="c19_79_" x="-285" y="287" class="sole_side_st1" width="39.7" height="10"/>
		<rect id="c19_78_" x="-285" y="297" class="sole_side_st1" width="39.7" height="10"/>
		<rect id="c19_77_" x="-285" y="307" class="sole_side_st1" width="39.7" height="10"/>
		<rect id="c19_76_" x="-285" y="317" class="sole_side_st1" width="39.7" height="10"/>
		<rect id="c19_75_" x="-285" y="327" class="sole_side_st1" width="39.7" height="10"/>
		<rect id="c19_74_" x="-285" y="337" class="sole_side_st1" width="39.7" height="10"/>
		<rect id="c19_73_" x="-285" y="347" class="sole_side_st1" width="39.7" height="10"/>
		<rect id="c19_72_" x="-285" y="357" class="sole_side_st1" width="39.7" height="10"/>
		<rect id="c19_71_" x="-285" y="367" class="sole_side_st1" width="39.7" height="10"/>
		<rect id="c19_70_" x="-285" y="377" class="sole_side_st1" width="39.7" height="10"/>
		<rect id="c19_69_" x="-285" y="387" class="sole_side_st1" width="39.7" height="10"/>
		<rect id="c19_68_" x="-285" y="397" class="sole_side_st1" width="39.7" height="10"/>
		<rect id="c19_67_" x="-285" y="407" class="sole_side_st1" width="39.7" height="10"/>
		<rect id="c19_66_" x="-285" y="417" class="sole_side_st1" width="39.7" height="10"/>
		<rect id="c19_65_" x="-285" y="427" class="sole_side_st1" width="39.7" height="10"/>
		<rect id="c19_64_" x="-285" y="437" class="sole_side_st1" width="39.7" height="10"/>
		<rect id="c19_63_" x="-285" y="447" class="sole_side_st1" width="39.7" height="10"/>
		<rect id="c19_62_" x="-285" y="457" class="sole_side_st1" width="39.7" height="10"/>
		<rect id="c19_61_" x="-285" y="467" class="sole_side_st1" width="39.7" height="10"/>
		<rect id="c19_60_" x="-285" y="477" class="sole_side_st1" width="39.7" height="10"/>
		<rect id="c19_59_" x="-285" y="487" class="sole_side_st1" width="39.7" height="10"/>
		<rect id="c19_58_" x="-285" y="497" class="sole_side_st1" width="39.7" height="10"/>
		<rect id="c19_57_" x="-285" y="507" class="sole_side_st1" width="39.7" height="10"/>
		<rect id="c19_56_" x="-285" y="517" class="sole_side_st1" width="39.7" height="10"/>
		<rect id="c19_55_" x="-285" y="527" class="sole_side_st1" width="39.7" height="10"/>
		<rect id="c19_54_" x="-285" y="537" class="sole_side_st1" width="39.7" height="10"/>
		<rect id="c19_53_" x="-285" y="547" class="sole_side_st1" width="39.7" height="10"/>
		<rect id="c19_52_" x="-285" y="557" class="sole_side_st1" width="39.7" height="10"/>
		<rect id="c19_51_" x="-285" y="567" class="sole_side_st1" width="39.7" height="10"/>
		<rect id="c19_50_" x="-285" y="577" class="sole_side_st1" width="39.7" height="10"/>
		<rect id="c19_49_" x="-285" y="587" class="sole_side_st1" width="39.7" height="10"/>
		<rect id="c19_48_" x="-285" y="597" class="sole_side_st1" width="39.7" height="10"/>
		<rect id="c19_47_" x="-285" y="607" class="sole_side_st1" width="39.7" height="10"/>
		<rect id="c19_46_" x="-285" y="617" class="sole_side_st1" width="39.7" height="10"/>
	</g>
</g>
</svg>
