<?xml version="1.0" encoding="utf-8"?>
<!-- Generator: Adobe Illustrator 19.0.0, SVG Export Plug-In . SVG Version: 6.00 Build 0)  -->
<!DOCTYPE svg PUBLIC "-//W3C//DTD SVG 1.1//EN" "http://www.w3.org/Graphics/SVG/1.1/DTD/svg11.dtd">
<svg version="1.1" id="Layer_1" xmlns="http://www.w3.org/2000/svg" xmlns:xlink="http://www.w3.org/1999/xlink" x="0px" y="0px"
	 viewBox="-205 167 200 30.4" style="enable-background:new -205 167 200 30.4;" xml:space="preserve">
<style type="text/css">
	.sole_front_st0{clip-path:url(#SVGID_2_);}
	.sole_front_st1{fill:#39B54A;}
</style>
<g id="grid">
</g>
<g>
	<defs>
		<path id="SVGID_1_" d="M-205,174.8c0.3,12,17.7,22,41.3,22.5s39.7-2.7,58.2-2.7c21.1,0.1,37.5,2.8,56.7,2.8
			c20.7,0,44.8-5.4,43.8-22.6c0-3,0-7.8,0-7.8h-200C-205,167-205,169.9-205,174.8z"/>
	</defs>
	<clipPath id="SVGID_2_">
		<use xlink:href="#SVGID_1_"  style="overflow:visible;"/>
	</clipPath>
	<g id="r45" class="sole_front_st0">
		<rect id="c19" x="-205" y="167" class="sole_front_st1" width="10" height="30.4"/>
		<rect id="c18" x="-195" y="167" class="sole_front_st1" width="10" height="30.4"/>
		<rect id="c17" x="-185" y="167" class="sole_front_st1" width="10" height="30.4"/>
		<rect id="c16" x="-175" y="167" class="sole_front_st1" width="10" height="30.4"/>
		<rect id="c15" x="-165" y="167" class="sole_front_st1" width="10" height="30.4"/>
		<rect id="c14" x="-155" y="167" class="sole_front_st1" width="10" height="30.4"/>
		<rect id="c13" x="-145" y="167" class="sole_front_st1" width="10" height="30.4"/>
		<rect id="c12" x="-135" y="167" class="sole_front_st1" width="10" height="30.4"/>
		<rect id="c11" x="-125" y="167" class="sole_front_st1" width="10" height="30.4"/>
		<rect id="c10" x="-115" y="167" class="sole_front_st1" width="10" height="30.4"/>
		<rect id="c9" x="-105" y="167" class="sole_front_st1" width="10" height="30.4"/>
		<rect id="c8" x="-95" y="167" class="sole_front_st1" width="10" height="30.4"/>
		<rect id="c7" x="-85" y="167" class="sole_front_st1" width="10" height="30.4"/>
		<rect id="c6" x="-75" y="167" class="sole_front_st1" width="10" height="30.4"/>
		<rect id="c5" x="-65" y="167" class="sole_front_st1" width="10" height="30.4"/>
		<rect id="c4" x="-55" y="167" class="sole_front_st1" width="10" height="30.4"/>
		<rect id="c3" x="-45" y="167" class="sole_front_st1" width="10" height="30.4"/>
		<rect id="c2" x="-35" y="167" class="sole_front_st1" width="10" height="30.4"/>
		<rect id="c1" x="-25" y="167" class="sole_front_st1" width="10" height="30.4"/>
		<rect id="c0" x="-15" y="167" class="sole_front_st1" width="10" height="30.4"/>
	</g>
</g>
</svg>
