<?xml version="1.0" encoding="utf-8"?>
<!-- Generator: Adobe Illustrator 19.0.0, SVG Export Plug-In . SVG Version: 6.00 Build 0)  -->
<!DOCTYPE svg PUBLIC "-//W3C//DTD SVG 1.1//EN" "http://www.w3.org/Graphics/SVG/1.1/DTD/svg11.dtd">
<svg version="1.1" id="Layer_1" xmlns="http://www.w3.org/2000/svg" xmlns:xlink="http://www.w3.org/1999/xlink" x="0px" y="0px"
	 viewBox="-205 167 200 30.4" style="enable-background:new -205 167 200 30.4;" xml:space="preserve">
<style type="text/css">
	.st0{clip-path:url(#SVGID_2_);}
	.st1{fill:url(#c19_1b);}
	.st2{fill:url(#c19_1b);}
	.st3{fill:url(#c19_1b);}
	.st4{fill:url(#c19_1b);}
	.st5{fill:url(#c19_1b);}
	.st6{fill:url(#c19_1b);}
	.st7{fill:url(#c19_1b);}
	.st8{fill:url(#c19_1b);}
	.st9{fill:url(#c19_1b);}
	.st10{fill:url(#c19_1b);}
	.st11{fill:url(#c19_1b);}
	.st12{fill:url(#c19_1b);}
	.st13{fill:url(#c19_1b);}
	.st14{fill:url(#c19_1b);}
	.st15{fill:url(#c19_1b);}
	.st16{fill:url(#c19_1b);}
	.st17{fill:url(#c19_1b);}
	.st18{fill:url(#c19_1b);}
	.st19{fill:url(#c19_1b);}
	.st20{fill:url(#c19_1b);}
</style>
<g id="grid">
</g>
<g>
	<defs>
		<path id="SVGID_1b" d="M-205,174.8c0.3,12,17.7,22,41.3,22.5s39.7-2.7,58.2-2.7c21.1,0.1,37.5,2.8,56.7,2.8
			c20.7,0,44.8-5.4,43.8-22.6c0-3,0-7.8,0-7.8h-200C-205,167-205,169.9-205,174.8z"/>
	</defs>
	<clipPath id="SVGID_2_">
		<use xlink:href="#SVGID_1b"  style="overflow:visible;"/>
	</clipPath>
	<g id="r45" class="st0">
		<linearGradient id="c19_1b" gradientUnits="userSpaceOnUse" x1="-200" y1="197.3629" x2="-200" y2="167">
			<stop  offset="0" style="stop-color:#666666"/>
			<stop  offset="1" style="stop-color:#666666;stop-opacity:0"/>
		</linearGradient>
		<rect id="c19" x="-205" y="167" class="st1" width="10" height="30.4"/>
		<linearGradient id="c18_1b" gradientUnits="userSpaceOnUse" x1="-190" y1="197.3629" x2="-190" y2="167">
			<stop  offset="0" style="stop-color:#39B54A"/>
			<stop  offset="1" style="stop-color:#39B54A;stop-opacity:0"/>
		</linearGradient>
		<rect id="c18" x="-195" y="167" class="st2" width="10" height="30.4"/>
		<linearGradient id="c17_1b" gradientUnits="userSpaceOnUse" x1="-180" y1="197.3629" x2="-180" y2="167">
			<stop  offset="0" style="stop-color:#39B54A"/>
			<stop  offset="1" style="stop-color:#39B54A;stop-opacity:0"/>
		</linearGradient>
		<rect id="c17" x="-185" y="167" class="st3" width="10" height="30.4"/>
		<linearGradient id="c16_1b" gradientUnits="userSpaceOnUse" x1="-170" y1="197.3629" x2="-170" y2="167">
			<stop  offset="0" style="stop-color:#39B54A"/>
			<stop  offset="1" style="stop-color:#39B54A;stop-opacity:0"/>
		</linearGradient>
		<rect id="c16" x="-175" y="167" class="st4" width="10" height="30.4"/>
		<linearGradient id="c15_1b" gradientUnits="userSpaceOnUse" x1="-160" y1="197.3629" x2="-160" y2="167">
			<stop  offset="0" style="stop-color:#39B54A"/>
			<stop  offset="1" style="stop-color:#39B54A;stop-opacity:0"/>
		</linearGradient>
		<rect id="c15" x="-165" y="167" class="st5" width="10" height="30.4"/>
		<linearGradient id="c14_1b" gradientUnits="userSpaceOnUse" x1="-150" y1="197.3629" x2="-150" y2="167">
			<stop  offset="0" style="stop-color:#39B54A"/>
			<stop  offset="1" style="stop-color:#39B54A;stop-opacity:0"/>
		</linearGradient>
		<rect id="c14" x="-155" y="167" class="st6" width="10" height="30.4"/>
		<linearGradient id="c13_1b" gradientUnits="userSpaceOnUse" x1="-140" y1="197.3629" x2="-140" y2="167">
			<stop  offset="0" style="stop-color:#39B54A"/>
			<stop  offset="1" style="stop-color:#39B54A;stop-opacity:0"/>
		</linearGradient>
		<rect id="c13" x="-145" y="167" class="st7" width="10" height="30.4"/>
		<linearGradient id="c12_1b" gradientUnits="userSpaceOnUse" x1="-130" y1="197.3629" x2="-130" y2="167">
			<stop  offset="0" style="stop-color:#39B54A"/>
			<stop  offset="1" style="stop-color:#39B54A;stop-opacity:0"/>
		</linearGradient>
		<rect id="c12" x="-135" y="167" class="st8" width="10" height="30.4"/>
		<linearGradient id="c11_1b" gradientUnits="userSpaceOnUse" x1="-120" y1="197.3629" x2="-120" y2="167">
			<stop  offset="0" style="stop-color:#39B54A"/>
			<stop  offset="1" style="stop-color:#39B54A;stop-opacity:0"/>
		</linearGradient>
		<rect id="c11" x="-125" y="167" class="st9" width="10" height="30.4"/>
		<linearGradient id="c10_1b" gradientUnits="userSpaceOnUse" x1="-110" y1="197.3629" x2="-110" y2="167">
			<stop  offset="0" style="stop-color:#39B54A"/>
			<stop  offset="1" style="stop-color:#39B54A;stop-opacity:0"/>
		</linearGradient>
		<rect id="c10" x="-115" y="167" class="st10" width="10" height="30.4"/>
		<linearGradient id="c9_1b" gradientUnits="userSpaceOnUse" x1="-100" y1="197.3629" x2="-100" y2="167">
			<stop  offset="0" style="stop-color:#39B54A"/>
			<stop  offset="1" style="stop-color:#39B54A;stop-opacity:0"/>
		</linearGradient>
		<rect id="c9" x="-105" y="167" class="st11" width="10" height="30.4"/>
		<linearGradient id="c8_1b" gradientUnits="userSpaceOnUse" x1="-90" y1="197.3629" x2="-90" y2="167">
			<stop  offset="0" style="stop-color:#39B54A"/>
			<stop  offset="1" style="stop-color:#39B54A;stop-opacity:0"/>
		</linearGradient>
		<rect id="c8" x="-95" y="167" class="st12" width="10" height="30.4"/>
		<linearGradient id="c7_1b" gradientUnits="userSpaceOnUse" x1="-80" y1="197.3629" x2="-80" y2="167">
			<stop  offset="0" style="stop-color:#39B54A"/>
			<stop  offset="1" style="stop-color:#39B54A;stop-opacity:0"/>
		</linearGradient>
		<rect id="c7" x="-85" y="167" class="st13" width="10" height="30.4"/>
		<linearGradient id="c6_1b" gradientUnits="userSpaceOnUse" x1="-70" y1="197.3629" x2="-70" y2="167">
			<stop  offset="0" style="stop-color:#39B54A"/>
			<stop  offset="1" style="stop-color:#39B54A;stop-opacity:0"/>
		</linearGradient>
		<rect id="c6" x="-75" y="167" class="st14" width="10" height="30.4"/>
		<linearGradient id="c5_1b" gradientUnits="userSpaceOnUse" x1="-60" y1="197.3629" x2="-60" y2="167">
			<stop  offset="0" style="stop-color:#39B54A"/>
			<stop  offset="1" style="stop-color:#39B54A;stop-opacity:0"/>
		</linearGradient>
		<rect id="c5" x="-65" y="167" class="st15" width="10" height="30.4"/>
		<linearGradient id="c4_1b" gradientUnits="userSpaceOnUse" x1="-50" y1="197.3629" x2="-50" y2="167">
			<stop  offset="0" style="stop-color:#39B54A"/>
			<stop  offset="1" style="stop-color:#39B54A;stop-opacity:0"/>
		</linearGradient>
		<rect id="c4" x="-55" y="167" class="st16" width="10" height="30.4"/>
		<linearGradient id="c3_1b" gradientUnits="userSpaceOnUse" x1="-40" y1="197.3629" x2="-40" y2="167">
			<stop  offset="0" style="stop-color:#39B54A"/>
			<stop  offset="1" style="stop-color:#39B54A;stop-opacity:0"/>
		</linearGradient>
		<rect id="c3" x="-45" y="167" class="st17" width="10" height="30.4"/>
		<linearGradient id="c2_1b" gradientUnits="userSpaceOnUse" x1="-30" y1="197.3629" x2="-30" y2="167">
			<stop  offset="0" style="stop-color:#39B54A"/>
			<stop  offset="1" style="stop-color:#39B54A;stop-opacity:0"/>
		</linearGradient>
		<rect id="c2" x="-35" y="167" class="st18" width="10" height="30.4"/>
		<linearGradient id="c1_1b" gradientUnits="userSpaceOnUse" x1="-20" y1="197.3629" x2="-20" y2="167">
			<stop  offset="0" style="stop-color:#39B54A"/>
			<stop  offset="1" style="stop-color:#39B54A;stop-opacity:0"/>
		</linearGradient>
		<rect id="c1" x="-25" y="167" class="st19" width="10" height="30.4"/>
		<linearGradient id="c0_1b" gradientUnits="userSpaceOnUse" x1="-10" y1="197.3629" x2="-10" y2="167">
			<stop  offset="0" style="stop-color:#39B54A"/>
			<stop  offset="1" style="stop-color:#39B54A;stop-opacity:0"/>
		</linearGradient>
		<rect id="c0" x="-15" y="167" class="st20" width="10" height="30.4"/>
	</g>
</g>
</svg>
