<?xml version="1.0" encoding="utf-8"?>
<!-- Generator: Adobe Illustrator 19.0.0, SVG Export Plug-In . SVG Version: 6.00 Build 0)  -->
<!DOCTYPE svg PUBLIC "-//W3C//DTD SVG 1.1//EN" "http://www.w3.org/Graphics/SVG/1.1/DTD/svg11.dtd">
<svg version="1.1" id="icon_x5F_hamburger_x5F_cont" onmousedown="top.LIVE.md(event)"
	 xmlns="http://www.w3.org/2000/svg" xmlns:xlink="http://www.w3.org/1999/xlink" x="0px" y="0px" viewBox="-255 347 100 100"
	 style="enable-background:new -255 347 100 100;" xml:space="preserve">
<style type="text/css">
	.st0{fill:#FFFFFF;}
</style>
<path id="icon_x5F_hamburger" class="st0" d="M-173.2,377.3h-63.7c-4.1,0-7.4-3.3-7.4-7.4l0,0c0-4.1,3.3-7.4,7.4-7.4h63.7
	c4.1,0,7.4,3.3,7.4,7.4l0,0C-165.8,373.9-169.1,377.3-173.2,377.3z M-165.8,397L-165.8,397c0-4.1-3.3-7.4-7.4-7.4h-63.7
	c-4.1,0-7.4,3.3-7.4,7.4l0,0c0,4.1,3.3,7.4,7.4,7.4h63.7C-169.1,404.4-165.8,401.1-165.8,397z M-165.8,424.1L-165.8,424.1
	c0-4.1-3.3-7.4-7.4-7.4h-63.7c-4.1,0-7.4,3.3-7.4,7.4l0,0c0,4.1,3.3,7.4,7.4,7.4h63.7C-169.1,431.6-165.8,428.2-165.8,424.1z"/>
</svg>
