<?xml version="1.0" encoding="utf-8"?>
<!-- Generator: Adobe Illustrator 19.0.0, SVG Export Plug-In . SVG Version: 6.00 Build 0)  -->
<!DOCTYPE svg PUBLIC "-//W3C//DTD SVG 1.1//EN" "http://www.w3.org/Graphics/SVG/1.1/DTD/svg11.dtd">
<svg version="1.1" id="Layer_1" xmlns="http://www.w3.org/2000/svg" xmlns:xlink="http://www.w3.org/1999/xlink" x="0px" y="0px"
	 viewBox="-255 347 100 100" style="enable-background:new -255 347 100 100;" xml:space="preserve">
<style type="text/css">
	.st0{fill:#309CEC;}
</style>
<path class="st0" d="M-184.3,376.1c0.8,2.1,1.1,4,1.1,6c0.1,2.6-0.5,5-1.6,7.3c-0.8,1.7-1.8,3.4-3.2,4.8c-2.6,2.8-4.8,5.8-7.3,8.6
	c-1.6,1.9-3.1,3.8-4.7,5.7c-0.1,0.2-0.1,0.3,0,0.4c0.7,0.8,1.5,1.5,2.2,2.3c1.3,1.4,2.6,2.7,3.9,4.1c0.8,0.9,1.6,1.7,2.4,2.6
	c0.9,1,1.6,2,2.3,3.1c0.8,1.3,1.3,2.6,1.6,4c0.3,1.1,0.3,2.3,0.4,3.5c0,1.4-0.2,2.8-0.6,4.1c-0.6,1.9-1.6,3.6-2.8,5.2
	c-1,1.2-2.1,2.2-3.3,3.1c-1,0.7-2,1.5-3.2,1.9c-1.4,0.5-2.8,1-4.2,1.4c-0.5,0.2-1.1,0.2-1.6,0.2c-2.3,0.2-4.5,0.2-6.7-0.3
	c-2.6-0.6-4.9-1.7-7-3.2c-1.4-1-2.6-2.2-3.7-3.6c-0.8-1.1-1.5-2.3-2-3.5c-0.5-1.2-0.8-2.4-1-3.7c-0.3-2.4,0-4.7,0.9-6.9
	c0.6-1.6,1.5-3.1,2.6-4.4c1.1-1.3,2.4-2.6,3.6-3.9c1.3-1.3,2.5-2.6,3.8-3.9c0.7-0.7,1.4-1.4,2.1-2.1c0.2-0.2,0.2-0.3,0-0.5
	c-1-1.2-2-2.4-2.9-3.6c-1-1.2-1.9-2.4-2.9-3.6c-0.8-1-1.5-2-2.3-3c-0.9-1.1-1.8-2.2-2.7-3.2c-1.4-1.6-2.7-3.2-3.6-5.1
	c-0.7-1.3-1.2-2.8-1.5-4.2c-0.8-4.3-0.2-8.5,2-12.4c1-1.7,2.3-3.2,3.7-4.5c1.8-1.6,3.7-3,5.9-4c1.1-0.5,2.3-1,3.4-1.3
	c1.6-0.4,3.1-0.7,4.8-0.7c1.3,0,2.7-0.1,4,0.1c2.6,0.2,5.1,0.9,7.5,2c2.2,1,4.2,2.4,5.9,4.1c0.8,0.8,1.5,1.6,2.2,2.4
	C-185.7,373-184.7,374.6-184.3,376.1z M-217.3,387c0.4,0.8,0.7,1.4,1.1,2c0.4,0.6,0.8,1,1.2,1.6c0.6,0.8,1.2,1.7,1.9,2.5
	c0.7,0.9,1.4,1.8,2,2.7c0.8,1.1,1.7,2.2,2.5,3.3c0.6,0.9,1.3,1.7,1.9,2.6c0.5,0.6,0.9,1.3,1.4,1.9c0.1,0.2,0.3,0.3,0.5,0
	c0.7-0.9,1.4-1.9,2.1-2.8c1.5-1.9,2.9-3.8,4.4-5.7c1.2-1.6,2.5-3.2,3.7-4.8c0.3-0.4,0.7-0.8,0.9-1.3c1.6-2.9,2.1-5.9,1.5-9.2
	c-0.2-1.1-0.7-2.2-1.3-3.1c-0.7-1.2-1.7-2.2-2.8-3.1c-2.2-1.8-4.7-2.8-7.6-3c-1.5-0.1-2.9,0-4.3,0.3c-1.4,0.3-2.7,0.9-3.9,1.6
	c-0.9,0.5-1.7,1.2-2.4,1.9c-1.6,1.5-2.8,3.4-3.2,5.6c-0.3,1.3-0.3,2.7-0.2,4C-217.7,385.1-217.5,386.1-217.3,387z M-200.9,437.4
	c0.5-0.3,1.2-0.6,1.8-1c2.2-1.4,3.9-3.2,4.5-5.9c0.4-1.6,0.4-3.3-0.2-4.8c-0.5-1.4-1.3-2.6-2.3-3.7c-0.7-0.7-1.3-1.4-2-2.2
	c-1.3-1.4-2.7-2.9-4-4.3c-0.6-0.6-1.1-1.2-1.7-1.8c-0.1-0.1-0.3,0-0.4,0c-0.9,0.9-1.8,1.8-2.7,2.7c-1.1,1.1-2.2,2.2-3.3,3.4
	c-1,1.1-2.1,2.2-3,3.4c-1.7,2.2-2.2,4.8-1.5,7.5c0.7,2.6,2.4,4.5,4.7,5.8C-207.9,438.3-204.6,438.4-200.9,437.4z M-225.2,359.5
	c1.1,1.8,2.7,3,4.7,3.7c1.3,0.5,2.6,0.7,3.9,0c0.3-0.2,0.7-0.4,0.9-0.8c0.3-0.5,0.6-1,0.7-1.5c0.4-1.5,0.3-3-0.1-4.5
	c-0.4-1.3-1-2.5-2-3.6c-0.9-0.9-1.8-1.7-3-2c-0.5-0.1-1-0.2-1.4-0.2c-1.2,0.1-2.3,0.6-3.3,1.5c-0.9,0.8-1.5,1.7-1.6,2.9
	c-0.1,1,0.1,1.9,0.4,2.9C-225.7,358.5-225.5,359-225.2,359.5z M-211.1,355.9c0.7,1.2,1.7,2,3,2.4c1.2,0.4,1.9,0.2,2.5-0.5
	c0.2-0.3,0.4-0.5,0.5-0.8c0.5-1.1,0.6-2.3,0.4-3.5c-0.1-0.4-0.1-0.8-0.3-1.1c-0.3-0.6-0.7-1.2-1.1-1.8c-1.3-1.9-4.5-1.6-5.6,0.4
	c-0.7,1.2-0.5,2.4-0.1,3.9C-211.6,355.1-211.4,355.5-211.1,355.9z M-200.6,358c0.9,0.7,1.8,0.7,2.6,0c0.3-0.3,0.6-0.6,0.8-0.9
	c0.9-1.5,1.1-3,0.5-4.6c-0.2-0.5-0.4-1-0.8-1.4c-0.9-0.9-2-0.9-3.1-0.6c-0.5,0.1-1,0.4-1.3,0.9c-0.9,1.3-0.9,2.8-0.5,4
	C-202,356.5-201.4,357.4-200.6,358z M-194.1,360.5c0.6,1.2,1.7,1.6,2.9,0.9c1.8-1,2.7-2.6,2.7-4.6c0-0.9-0.3-1.8-1.2-2.3
	c-1.1-0.7-2.8-0.8-3.8,0.4c-1.2,1.5-1.5,3.1-0.9,5C-194.2,360.1-194.2,360.3-194.1,360.5z M-183.1,360.6c-1.2-1-2.7-1.4-3.9,0.2
	c-0.9,1.1-1.2,2.3-0.9,3.7c0.3,1.5,1.3,2.3,2.9,1.5c0.5-0.3,1.1-0.7,1.5-1.2c0.8-1,1.3-2.1,0.9-3.4
	C-182.8,361.1-182.9,360.8-183.1,360.6z M-179.7,421.8l12.1-7l12.1-7l-12.1-7l-12.1-7v14V421.8z M-229.7,394l-12.1,7l-12.1,7l12.1,7
	l12.1,7v-14V394z"/>
</svg>
