<?xml version="1.0" encoding="utf-8"?>
<!-- Generator: Adobe Illustrator 19.0.0, SVG Export Plug-In . SVG Version: 6.00 Build 0)  -->
<!DOCTYPE svg PUBLIC "-//W3C//DTD SVG 1.1//EN" "http://www.w3.org/Graphics/SVG/1.1/DTD/svg11.dtd">
<svg version="1.1" id="icon_x5F_hamburger_x5F_cont" onmousedown="top.LIVE.md(event)"
	 xmlns="http://www.w3.org/2000/svg" xmlns:xlink="http://www.w3.org/1999/xlink" x="0px" y="0px" viewBox="-255 347 100 100"
	 style="enable-background:new -255 347 100 100;" xml:space="preserve">
<style type="text/css">
	.st0{fill:none;stroke:#FFFFFF;stroke-width:0.25;stroke-miterlimit:10;}
	.st1{fill:#00FF00;}
	.st2{fill:#BCFF00;}
	.st3{fill:#FFFF00;}
	.st4{fill:#FFCB00;}
	.st5{fill:#FF7D00;}
	.st6{fill:#FF5700;}
	.st7{fill:#FF0000;}
	.st8{display:none;}
	.st9{display:inline;fill:#00FF00;}
	.st10{fill:#FFFFFF;}
</style>
<circle class="st0" cx="-205" cy="396.8" r="45"/>
<path class="st1" d="M-207.8,354l0.3,4c1.1-0.1,2.3-0.1,3.4-0.1c0.6,0,1.2,0,1.9,0.1l0.3-4c-0.7,0-1.4-0.1-2-0.1
	C-205.3,353.9-206.6,353.9-207.8,354z"/>
<path class="st2" d="M-215.2,355.1l1,3.9c1.1-0.3,2.2-0.5,3.4-0.7c0.6-0.1,1.2-0.2,1.8-0.2l-0.4-4c-0.7,0.1-1.4,0.2-2,0.3
	C-212.8,354.6-214,354.8-215.2,355.1z"/>
<path class="st3" d="M-222.4,357.5l1.6,3.7c1-0.5,2.1-0.9,3.2-1.3c0.6-0.2,1.2-0.4,1.8-0.6l-1.1-3.9c-0.7,0.2-1.3,0.4-2,0.6
	C-220,356.6-221.2,357-222.4,357.5z"/>
<path class="st4" d="M-228.9,361.1l2.2,3.3c0.9-0.6,1.9-1.2,2.9-1.8c0.5-0.3,1.1-0.6,1.7-0.9l-1.8-3.6c-0.6,0.3-1.2,0.6-1.8,0.9
	C-226.8,359.8-227.9,360.5-228.9,361.1z"/>
<path class="st5" d="M-234.8,365.9l2.8,2.9c0.8-0.8,1.7-1.5,2.6-2.3c0.5-0.4,1-0.8,1.5-1.1l-2.4-3.3c-0.5,0.4-1.1,0.8-1.6,1.2
	C-233,364.1-233.9,365-234.8,365.9z"/>
<path class="st6" d="M-239.8,371.5l3.2,2.4c0.7-0.9,1.4-1.8,2.1-2.7c0.4-0.5,0.8-0.9,1.3-1.4l-2.9-2.8c-0.5,0.5-0.9,1-1.4,1.5
	C-238.2,369.5-239,370.5-239.8,371.5z"/>
<path class="st7" d="M-243.7,377.9l3.6,1.8c0.5-1,1-2,1.6-3c0.3-0.5,0.7-1.1,1-1.6l-3.3-2.3c-0.4,0.6-0.8,1.1-1.1,1.7
	C-242.5,375.7-243.1,376.8-243.7,377.9z"/>
<g class="st8">
	<path class="st9" d="M-501.4,731.9l3.9,1.1c0.3-1.1,0.7-2.2,1.1-3.3c0.2-0.6,0.5-1.1,0.7-1.7l-3.7-1.6c-0.3,0.6-0.5,1.2-0.8,1.9
		C-500.6,729.5-501,730.7-501.4,731.9z"/>
	<path class="st9" d="M-502.9,739.3l4,0.4c0.1-1.1,0.3-2.3,0.5-3.4c0.1-0.6,0.3-1.2,0.4-1.8l-3.9-1c-0.2,0.7-0.3,1.3-0.5,2
		C-502.5,736.8-502.7,738.1-502.9,739.3z"/>
	<path class="st9" d="M-503,746.8l4-0.3c-0.1-1.1-0.1-2.3-0.1-3.4c0-0.6,0-1.2,0.1-1.9l-4-0.3c0,0.7-0.1,1.4-0.1,2
		C-503.1,744.3-503.1,745.6-503,746.8z"/>
	<path class="st9" d="M-501.9,754.2l3.9-1c-0.3-1.1-0.5-2.2-0.7-3.4c-0.1-0.6-0.2-1.2-0.2-1.8l-4,0.4c0.1,0.7,0.2,1.4,0.3,2
		C-502.4,751.8-502.2,753-501.9,754.2z"/>
	<path class="st9" d="M-499.5,761.4l3.7-1.6c-0.5-1-0.9-2.1-1.3-3.2c-0.2-0.6-0.4-1.2-0.6-1.8l-3.9,1.1c0.2,0.7,0.4,1.3,0.6,2
		C-500.4,759-500,760.2-499.5,761.4z"/>
	<path class="st9" d="M-495.9,767.9l3.3-2.2c-0.6-0.9-1.2-1.9-1.8-2.9c-0.3-0.5-0.6-1.1-0.9-1.7l-3.6,1.8c0.3,0.6,0.6,1.2,0.9,1.8
		C-497.2,765.8-496.5,766.9-495.9,767.9z"/>
	<path class="st9" d="M-491.1,773.8l2.9-2.8c-0.8-0.8-1.5-1.7-2.3-2.6c-0.4-0.5-0.8-1-1.1-1.5l-3.3,2.4c0.4,0.5,0.8,1.1,1.2,1.6
		C-492.9,772-492,772.9-491.1,773.8z"/>
	<path class="st9" d="M-485.5,778.8l2.4-3.2c-0.9-0.7-1.8-1.4-2.7-2.1c-0.5-0.4-0.9-0.8-1.4-1.3l-2.8,2.9c0.5,0.5,1,0.9,1.5,1.4
		C-487.5,777.2-486.5,778-485.5,778.8z"/>
	<path class="st9" d="M-479.1,782.7l1.8-3.6c-1-0.5-2-1-3-1.6c-0.5-0.3-1.1-0.7-1.6-1l-2.3,3.3c0.6,0.4,1.1,0.8,1.7,1.1
		C-481.3,781.5-480.2,782.1-479.1,782.7z"/>
	<path class="st9" d="M-472.1,785.4l1.1-3.9c-1.1-0.3-2.2-0.7-3.3-1.1c-0.6-0.2-1.1-0.5-1.7-0.7l-1.6,3.7c0.6,0.3,1.2,0.5,1.9,0.8
		C-474.5,784.6-473.3,785-472.1,785.4z"/>
	<path class="st9" d="M-464.7,786.9l0.4-4c-1.1-0.1-2.3-0.3-3.4-0.5c-0.6-0.1-1.2-0.3-1.8-0.4l-1,3.9c0.7,0.2,1.3,0.3,2,0.5
		C-467.2,786.5-465.9,786.7-464.7,786.9z"/>
	<path class="st9" d="M-457.2,787l-0.3-4c-1.1,0.1-2.3,0.1-3.4,0.1c-0.6,0-1.2,0-1.9-0.1l-0.3,4c0.7,0,1.4,0.1,2,0.1
		C-459.7,787.1-458.4,787.1-457.2,787z"/>
	<path class="st9" d="M-449.8,785.9l-1-3.9c-1.1,0.3-2.2,0.5-3.4,0.7c-0.6,0.1-1.2,0.2-1.8,0.2l0.4,4c0.7-0.1,1.4-0.2,2-0.3
		C-452.2,786.4-451,786.2-449.8,785.9z"/>
	<path class="st9" d="M-442.6,783.5l-1.6-3.7c-1,0.5-2.1,0.9-3.2,1.3c-0.6,0.2-1.2,0.4-1.8,0.6l1.1,3.9c0.7-0.2,1.3-0.4,2-0.6
		C-445,784.4-443.8,784-442.6,783.5z"/>
	<path class="st9" d="M-436.1,779.9l-2.2-3.3c-0.9,0.6-1.9,1.2-2.9,1.8c-0.5,0.3-1.1,0.6-1.7,0.9l1.8,3.6c0.6-0.3,1.2-0.6,1.8-0.9
		C-438.2,781.2-437.1,780.5-436.1,779.9z"/>
	<path class="st9" d="M-430.2,775.1l-2.8-2.9c-0.8,0.8-1.7,1.5-2.6,2.3c-0.5,0.4-1,0.8-1.5,1.1l2.4,3.3c0.5-0.4,1.1-0.8,1.6-1.2
		C-432,776.9-431.1,776-430.2,775.1z"/>
	<path class="st9" d="M-425.2,769.5l-3.2-2.4c-0.7,0.9-1.4,1.8-2.1,2.7c-0.4,0.5-0.8,0.9-1.3,1.4l2.9,2.8c0.5-0.5,0.9-1,1.4-1.5
		C-426.8,771.5-426,770.5-425.2,769.5z"/>
	<path class="st9" d="M-421.3,763.1l-3.6-1.8c-0.5,1-1,2-1.6,3c-0.3,0.5-0.7,1.1-1,1.6l3.3,2.3c0.4-0.6,0.8-1.1,1.1-1.7
		C-422.5,765.3-421.9,764.2-421.3,763.1z"/>
	<path class="st9" d="M-418.6,756.1l-3.9-1.1c-0.3,1.1-0.7,2.2-1.1,3.3c-0.2,0.6-0.5,1.1-0.7,1.7l3.7,1.6c0.3-0.6,0.5-1.2,0.8-1.9
		C-419.4,758.5-419,757.3-418.6,756.1z"/>
	<path class="st9" d="M-417.1,748.7l-4-0.4c-0.1,1.1-0.3,2.3-0.5,3.4c-0.1,0.6-0.3,1.2-0.4,1.8l3.9,1c0.2-0.7,0.3-1.3,0.5-2
		C-417.5,751.2-417.3,749.9-417.1,748.7z"/>
	<path class="st9" d="M-417,741.2l-4,0.3c0.1,1.1,0.1,2.3,0.1,3.4c0,0.6,0,1.2-0.1,1.9l4,0.3c0-0.7,0.1-1.4,0.1-2
		C-416.9,743.7-416.9,742.4-417,741.2z"/>
	<path class="st9" d="M-418.1,733.8l-3.9,1c0.3,1.1,0.5,2.2,0.7,3.4c0.1,0.6,0.2,1.2,0.2,1.8l4-0.4c-0.1-0.7-0.2-1.4-0.3-2
		C-417.6,736.2-417.8,735-418.1,733.8z"/>
	<path class="st9" d="M-420.5,726.6l-3.7,1.6c0.5,1,0.9,2.1,1.3,3.2c0.2,0.6,0.4,1.2,0.6,1.8l3.9-1.1c-0.2-0.7-0.4-1.3-0.6-2
		C-419.6,729-420,727.8-420.5,726.6z"/>
</g>
<path class="st7" d="M-169.1,373.1l-3.3,2.2c0.6,0.9,1.2,1.9,1.8,2.9c0.3,0.5,0.6,1.1,0.9,1.7l3.6-1.8c-0.3-0.6-0.6-1.2-0.9-1.8
	C-167.8,375.2-168.5,374.1-169.1,373.1z"/>
<path class="st6" d="M-173.9,367.2l-2.9,2.8c0.8,0.8,1.5,1.7,2.3,2.6c0.4,0.5,0.8,1,1.1,1.5l3.3-2.4c-0.4-0.5-0.8-1.1-1.2-1.6
	C-172.1,369-173,368.1-173.9,367.2z"/>
<path class="st5" d="M-179.5,362.2l-2.4,3.2c0.9,0.7,1.8,1.4,2.7,2.1c0.5,0.4,0.9,0.8,1.4,1.3l2.8-2.9c-0.5-0.5-1-0.9-1.5-1.4
	C-177.5,363.8-178.5,363-179.5,362.2z"/>
<path class="st4" d="M-185.9,358.3l-1.8,3.6c1,0.5,2,1,3,1.6c0.5,0.3,1.1,0.7,1.6,1l2.3-3.3c-0.6-0.4-1.1-0.8-1.7-1.1
	C-183.7,359.5-184.8,358.9-185.9,358.3z"/>
<path class="st3" d="M-192.9,355.6l-1.1,3.9c1.1,0.3,2.2,0.7,3.3,1.1c0.6,0.2,1.1,0.5,1.7,0.7l1.6-3.7c-0.6-0.3-1.2-0.5-1.9-0.8
	C-190.5,356.4-191.7,356-192.9,355.6z"/>
<path class="st2" d="M-200.3,354.1l-0.4,4c1.1,0.1,2.3,0.3,3.4,0.5c0.6,0.1,1.2,0.3,1.8,0.4l1-3.9c-0.7-0.2-1.3-0.3-2-0.5
	C-197.8,354.5-199.1,354.3-200.3,354.1z"/>
<g>
	<path class="st10" d="M-165.2,372.3c0,0.1,0,0.4,0.1,0.6c0.2,0.4,0.6,0.4,0.8,0.3c0.3-0.2,0.3-0.6,0.1-0.9l-0.1-0.2l0.2-0.1
		l0.1,0.2c0.1,0.2,0.4,0.5,0.7,0.3c0.2-0.1,0.3-0.3,0.1-0.6c-0.1-0.2-0.3-0.3-0.4-0.4l0.2-0.2c0.2,0.1,0.4,0.3,0.5,0.5
		c0.3,0.5,0.1,0.8-0.2,1c-0.2,0.1-0.5,0.1-0.8-0.1l0,0c0.1,0.3,0,0.7-0.3,0.9c-0.4,0.2-0.9,0.1-1.2-0.5c-0.1-0.3-0.2-0.5-0.2-0.7
		L-165.2,372.3z"/>
	<path class="st10" d="M-162.5,375.2c-0.8,0.4-1.4,0.4-1.7-0.1c-0.3-0.5,0-1,0.8-1.5c0.8-0.4,1.4-0.3,1.7,0.1
		C-161.4,374.2-161.7,374.7-162.5,375.2z M-163.2,373.9c-0.6,0.3-0.9,0.7-0.7,1c0.2,0.3,0.6,0.3,1.2-0.1c0.6-0.3,0.9-0.7,0.7-1
		C-162.1,373.6-162.6,373.6-163.2,373.9z"/>
</g>
<g>
	<path class="st10" d="M-176.1,360.5l0.1-0.2l0.4,0c1,0,1.4-0.1,1.7-0.4c0.2-0.2,0.2-0.5-0.1-0.7c-0.2-0.2-0.4-0.2-0.6-0.2l0.1-0.3
		c0.2,0,0.5,0.1,0.8,0.3c0.4,0.4,0.4,0.8,0.1,1.1c-0.3,0.4-0.9,0.4-1.7,0.5l-0.3,0l0,0l0.9,0.8l-0.2,0.2L-176.1,360.5z"/>
	<path class="st10" d="M-172.3,362c-0.6,0.7-1.2,0.9-1.6,0.5c-0.4-0.3-0.3-1,0.2-1.6c0.6-0.7,1.2-0.8,1.6-0.4
		C-171.6,360.8-171.7,361.4-172.3,362z M-173.4,361.1c-0.5,0.5-0.6,1-0.3,1.2c0.3,0.2,0.7,0,1.2-0.5c0.4-0.5,0.6-0.9,0.3-1.2
		C-172.5,360.4-172.9,360.6-173.4,361.1z"/>
</g>
<g>
	<path class="st10" d="M-188.7,350.9L-188.7,350.9l-0.5,0.1l0-0.3l0.7-0.1l0.3,0.1l-1,2.5l-0.3-0.1L-188.7,350.9z"/>
	<path class="st10" d="M-186.1,352.9c-0.3,0.9-0.8,1.2-1.4,1c-0.5-0.2-0.7-0.8-0.3-1.6c0.3-0.8,0.9-1.2,1.4-1
		C-185.9,351.6-185.8,352.1-186.1,352.9z M-187.5,352.5c-0.3,0.7-0.2,1.1,0.1,1.2c0.3,0.1,0.7-0.2,0.9-0.9c0.2-0.6,0.2-1.1-0.1-1.2
		C-186.8,351.5-187.2,351.8-187.5,352.5z"/>
</g>
<g>
	<path class="st10" d="M-203.8,349.2c0,0.9-0.4,1.4-1,1.4c-0.5,0-0.9-0.5-0.9-1.4c0-0.9,0.4-1.4,1-1.4
		C-204.2,347.8-203.8,348.3-203.8,349.2z M-205.3,349.2c0,0.7,0.2,1.1,0.5,1.1c0.4,0,0.6-0.4,0.6-1.1c0-0.7-0.1-1.1-0.5-1.1
		C-205.1,348.1-205.3,348.4-205.3,349.2z"/>
</g>
<g>
	<path class="st10" d="M-222.6,352.6l0.1,0.3l-1,0.4l-0.1-0.3L-222.6,352.6z"/>
	<path class="st10" d="M-222,351.2L-222,351.2l-0.4,0.4l-0.2-0.2l0.4-0.5l0.3-0.1l0.9,2.5l-0.3,0.1L-222,351.2z"/>
	<path class="st10" d="M-218.7,351.1c0.3,0.9,0.2,1.5-0.4,1.7c-0.5,0.2-1-0.2-1.3-1c-0.3-0.9-0.1-1.5,0.4-1.6
		C-219.5,349.9-219,350.3-218.7,351.1z M-220.1,351.6c0.2,0.7,0.6,1,0.9,0.8c0.3-0.1,0.4-0.6,0.1-1.2c-0.2-0.6-0.5-1-0.9-0.8
		C-220.2,350.5-220.3,350.9-220.1,351.6z"/>
</g>
<g>
	<path class="st10" d="M-236.4,361.2l0.2,0.2l-0.8,0.7l-0.2-0.2L-236.4,361.2z"/>
	<path class="st10" d="M-235.4,362l-0.1-0.2l0-0.4c0.1-0.9,0.1-1.4-0.1-1.7c-0.2-0.2-0.4-0.3-0.7-0.1c-0.2,0.2-0.3,0.4-0.3,0.5
		l-0.3-0.1c0-0.2,0.2-0.5,0.4-0.7c0.4-0.4,0.9-0.2,1.1,0.1c0.3,0.4,0.3,0.9,0.2,1.7l0,0.3l0,0l0.9-0.8l0.2,0.2L-235.4,362z"/>
	<path class="st10" d="M-233.3,358.4c0.6,0.7,0.6,1.3,0.2,1.7c-0.4,0.3-1,0.2-1.6-0.5c-0.6-0.7-0.6-1.3-0.2-1.7
		C-234.4,357.6-233.8,357.8-233.3,358.4z M-234.4,359.4c0.5,0.5,0.9,0.7,1.1,0.5c0.3-0.2,0.1-0.7-0.3-1.2c-0.4-0.5-0.8-0.7-1.1-0.5
		C-234.9,358.4-234.8,358.8-234.4,359.4z"/>
</g>
<g>
	<path class="st10" d="M-246.8,374.4l0.2,0.1l-0.5,0.9l-0.2-0.1L-246.8,374.4z"/>
	<path class="st10" d="M-245.8,374.5c0.1-0.1,0.3-0.2,0.4-0.4c0.2-0.4,0-0.7-0.2-0.8c-0.3-0.2-0.6,0-0.8,0.3l-0.1,0.2l-0.2-0.1
		l0.1-0.2c0.1-0.2,0.2-0.6-0.1-0.7c-0.2-0.1-0.4-0.1-0.6,0.2c-0.1,0.2-0.1,0.4-0.1,0.6l-0.3,0c0-0.2,0-0.5,0.2-0.7
		c0.3-0.5,0.7-0.5,0.9-0.3c0.2,0.1,0.4,0.4,0.3,0.7l0,0c0.2-0.3,0.6-0.4,0.9-0.2c0.4,0.2,0.5,0.7,0.2,1.3c-0.2,0.3-0.4,0.4-0.5,0.5
		L-245.8,374.5z"/>
	<path class="st10" d="M-244.8,370.7c0.8,0.5,1.1,1,0.8,1.5c-0.3,0.5-0.9,0.5-1.6,0.1c-0.8-0.5-1-1-0.7-1.5
		C-246.1,370.3-245.5,370.2-244.8,370.7z M-245.5,372c0.6,0.3,1.1,0.4,1.2,0.1c0.2-0.3-0.1-0.7-0.7-1c-0.6-0.3-1-0.4-1.2-0.1
		C-246.3,371.2-246.1,371.6-245.5,372z"/>
</g>
</svg>
