<?xml version="1.0" encoding="utf-8"?>
<!-- Generator: Adobe Illustrator 19.0.0, SVG Export Plug-In . SVG Version: 6.00 Build 0)  -->
<!DOCTYPE svg PUBLIC "-//W3C//DTD SVG 1.1//EN" "http://www.w3.org/Graphics/SVG/1.1/DTD/svg11.dtd">
<svg version="1.1" id="icon_x5F_hamburger_x5F_cont" onmousedown="top.LIVE.md(event)"
	 xmlns="http://www.w3.org/2000/svg" xmlns:xlink="http://www.w3.org/1999/xlink" x="0px" y="0px" viewBox="-255 347 100 100"
	 style="enable-background:new -255 347 100 100;" xml:space="preserve">
<style type="text/css">
	.st0{fill:none;stroke:#FFFFFF;stroke-width:0.25;stroke-miterlimit:10;}
	.st1{fill:#00FF00;}
	.st2{fill:#BCFF00;}
	.st3{fill:#FFFF00;}
	.st4{fill:#FFCB00;}
	.st5{fill:#FF7D00;}
	.st6{fill:#FF5700;}
	.st7{fill:#FF0000;}
	.st8{display:none;}
	.st9{display:inline;fill:#00FF00;}
</style>
<circle class="st0" cx="-205" cy="397" r="45"/>
<path class="st1" d="M-207.8,354l0.3,4c1.1-0.1,2.3-0.1,3.4-0.1c0.6,0,1.2,0,1.9,0.1l0.3-4c-0.7,0-1.4-0.1-2-0.1
	C-205.3,353.9-206.6,353.9-207.8,354z"/>
<path class="st2" d="M-215.2,355.1l1,3.9c1.1-0.3,2.2-0.5,3.4-0.7c0.6-0.1,1.2-0.2,1.8-0.2l-0.4-4c-0.7,0.1-1.4,0.2-2,0.3
	C-212.8,354.6-214,354.8-215.2,355.1z"/>
<path class="st3" d="M-222.4,357.5l1.6,3.7c1-0.5,2.1-0.9,3.2-1.3c0.6-0.2,1.2-0.4,1.8-0.6l-1.1-3.9c-0.7,0.2-1.3,0.4-2,0.6
	C-220,356.6-221.2,357-222.4,357.5z"/>
<path class="st4" d="M-228.9,361.1l2.2,3.3c0.9-0.6,1.9-1.2,2.9-1.8c0.5-0.3,1.1-0.6,1.7-0.9l-1.8-3.6c-0.6,0.3-1.2,0.6-1.8,0.9
	C-226.8,359.8-227.9,360.5-228.9,361.1z"/>
<path class="st5" d="M-234.8,365.9l2.8,2.9c0.8-0.8,1.7-1.5,2.6-2.3c0.5-0.4,1-0.8,1.5-1.1l-2.4-3.3c-0.5,0.4-1.1,0.8-1.6,1.2
	C-233,364.1-233.9,365-234.8,365.9z"/>
<path class="st6" d="M-239.8,371.5l3.2,2.4c0.7-0.9,1.4-1.8,2.1-2.7c0.4-0.5,0.8-0.9,1.3-1.4l-2.9-2.8c-0.5,0.5-0.9,1-1.4,1.5
	C-238.2,369.5-239,370.5-239.8,371.5z"/>
<path class="st7" d="M-243.7,377.9l3.6,1.8c0.5-1,1-2,1.6-3c0.3-0.5,0.7-1.1,1-1.6l-3.3-2.3c-0.4,0.6-0.8,1.1-1.1,1.7
	C-242.5,375.7-243.1,376.8-243.7,377.9z"/>
<g class="st8">
	<path class="st9" d="M-756.4,1078.9l3.9,1.1c0.3-1.1,0.7-2.2,1.1-3.3c0.2-0.6,0.5-1.1,0.7-1.7l-3.7-1.6c-0.3,0.6-0.5,1.2-0.8,1.9
		C-755.6,1076.5-756,1077.7-756.4,1078.9z"/>
	<path class="st9" d="M-757.9,1086.3l4,0.4c0.1-1.1,0.3-2.3,0.5-3.4c0.1-0.6,0.3-1.2,0.4-1.8l-3.9-1c-0.2,0.7-0.3,1.3-0.5,2
		C-757.5,1083.8-757.7,1085.1-757.9,1086.3z"/>
	<path class="st9" d="M-758,1093.8l4-0.3c-0.1-1.1-0.1-2.3-0.1-3.4c0-0.6,0-1.2,0.1-1.9l-4-0.3c0,0.7-0.1,1.4-0.1,2
		C-758.1,1091.3-758.1,1092.6-758,1093.8z"/>
	<path class="st9" d="M-756.9,1101.2l3.9-1c-0.3-1.1-0.5-2.2-0.7-3.4c-0.1-0.6-0.2-1.2-0.2-1.8l-4,0.4c0.1,0.7,0.2,1.4,0.3,2
		C-757.4,1098.8-757.2,1100-756.9,1101.2z"/>
	<path class="st9" d="M-754.5,1108.4l3.7-1.6c-0.5-1-0.9-2.1-1.3-3.2c-0.2-0.6-0.4-1.2-0.6-1.8l-3.9,1.1c0.2,0.7,0.4,1.3,0.6,2
		C-755.4,1106-755,1107.2-754.5,1108.4z"/>
	<path class="st9" d="M-750.9,1114.9l3.3-2.2c-0.6-0.9-1.2-1.9-1.8-2.9c-0.3-0.5-0.6-1.1-0.9-1.7l-3.6,1.8c0.3,0.6,0.6,1.2,0.9,1.8
		C-752.2,1112.8-751.5,1113.9-750.9,1114.9z"/>
	<path class="st9" d="M-746.1,1120.8l2.9-2.8c-0.8-0.8-1.5-1.7-2.3-2.6c-0.4-0.5-0.8-1-1.1-1.5l-3.3,2.4c0.4,0.5,0.8,1.1,1.2,1.6
		C-747.9,1119-747,1119.9-746.1,1120.8z"/>
	<path class="st9" d="M-740.5,1125.8l2.4-3.2c-0.9-0.7-1.8-1.4-2.7-2.1c-0.5-0.4-0.9-0.8-1.4-1.3l-2.8,2.9c0.5,0.5,1,0.9,1.5,1.4
		C-742.5,1124.2-741.5,1125-740.5,1125.8z"/>
	<path class="st9" d="M-734.1,1129.7l1.8-3.6c-1-0.5-2-1-3-1.6c-0.5-0.3-1.1-0.7-1.6-1l-2.3,3.3c0.6,0.4,1.1,0.8,1.7,1.1
		C-736.3,1128.5-735.2,1129.1-734.1,1129.7z"/>
	<path class="st9" d="M-727.1,1132.4l1.1-3.9c-1.1-0.3-2.2-0.7-3.3-1.1c-0.6-0.2-1.1-0.5-1.7-0.7l-1.6,3.7c0.6,0.3,1.2,0.5,1.9,0.8
		C-729.5,1131.6-728.3,1132-727.1,1132.4z"/>
	<path class="st9" d="M-719.7,1133.9l0.4-4c-1.1-0.1-2.3-0.3-3.4-0.5c-0.6-0.1-1.2-0.3-1.8-0.4l-1,3.9c0.7,0.2,1.3,0.3,2,0.5
		C-722.2,1133.5-720.9,1133.7-719.7,1133.9z"/>
	<path class="st9" d="M-712.2,1134l-0.3-4c-1.1,0.1-2.3,0.1-3.4,0.1c-0.6,0-1.2,0-1.9-0.1l-0.3,4c0.7,0,1.4,0.1,2,0.1
		C-714.7,1134.1-713.4,1134.1-712.2,1134z"/>
	<path class="st9" d="M-704.8,1132.9l-1-3.9c-1.1,0.3-2.2,0.5-3.4,0.7c-0.6,0.1-1.2,0.2-1.8,0.2l0.4,4c0.7-0.1,1.4-0.2,2-0.3
		C-707.2,1133.4-706,1133.2-704.8,1132.9z"/>
	<path class="st9" d="M-697.6,1130.5l-1.6-3.7c-1,0.5-2.1,0.9-3.2,1.3c-0.6,0.2-1.2,0.4-1.8,0.6l1.1,3.9c0.7-0.2,1.3-0.4,2-0.6
		C-700,1131.4-698.8,1131-697.6,1130.5z"/>
	<path class="st9" d="M-691.1,1126.9l-2.2-3.3c-0.9,0.6-1.9,1.2-2.9,1.8c-0.5,0.3-1.1,0.6-1.7,0.9l1.8,3.6c0.6-0.3,1.2-0.6,1.8-0.9
		C-693.2,1128.2-692.1,1127.5-691.1,1126.9z"/>
	<path class="st9" d="M-685.2,1122.1l-2.8-2.9c-0.8,0.8-1.7,1.5-2.6,2.3c-0.5,0.4-1,0.8-1.5,1.1l2.4,3.3c0.5-0.4,1.1-0.8,1.6-1.2
		C-687,1123.9-686.1,1123-685.2,1122.1z"/>
	<path class="st9" d="M-680.2,1116.5l-3.2-2.4c-0.7,0.9-1.4,1.8-2.1,2.7c-0.4,0.5-0.8,0.9-1.3,1.4l2.9,2.8c0.5-0.5,0.9-1,1.4-1.5
		C-681.8,1118.5-681,1117.5-680.2,1116.5z"/>
	<path class="st9" d="M-676.3,1110.1l-3.6-1.8c-0.5,1-1,2-1.6,3c-0.3,0.5-0.7,1.1-1,1.6l3.3,2.3c0.4-0.6,0.8-1.1,1.1-1.7
		C-677.5,1112.3-676.9,1111.2-676.3,1110.1z"/>
	<path class="st9" d="M-673.6,1103.1l-3.9-1.1c-0.3,1.1-0.7,2.2-1.1,3.3c-0.2,0.6-0.5,1.1-0.7,1.7l3.7,1.6c0.3-0.6,0.5-1.2,0.8-1.9
		C-674.4,1105.5-674,1104.3-673.6,1103.1z"/>
	<path class="st9" d="M-672.1,1095.7l-4-0.4c-0.1,1.1-0.3,2.3-0.5,3.4c-0.1,0.6-0.3,1.2-0.4,1.8l3.9,1c0.2-0.7,0.3-1.3,0.5-2
		C-672.5,1098.2-672.3,1096.9-672.1,1095.7z"/>
	<path class="st9" d="M-672,1088.2l-4,0.3c0.1,1.1,0.1,2.3,0.1,3.4c0,0.6,0,1.2-0.1,1.9l4,0.3c0-0.7,0.1-1.4,0.1-2
		C-671.9,1090.7-671.9,1089.4-672,1088.2z"/>
	<path class="st9" d="M-673.1,1080.8l-3.9,1c0.3,1.1,0.5,2.2,0.7,3.4c0.1,0.6,0.2,1.2,0.2,1.8l4-0.4c-0.1-0.7-0.2-1.4-0.3-2
		C-672.6,1083.2-672.8,1082-673.1,1080.8z"/>
	<path class="st9" d="M-675.5,1073.6l-3.7,1.6c0.5,1,0.9,2.1,1.3,3.2c0.2,0.6,0.4,1.2,0.6,1.8l3.9-1.1c-0.2-0.7-0.4-1.3-0.6-2
		C-674.6,1076-675,1074.8-675.5,1073.6z"/>
</g>
<path class="st7" d="M-169.1,373.1l-3.3,2.2c0.6,0.9,1.2,1.9,1.8,2.9c0.3,0.5,0.6,1.1,0.9,1.7l3.6-1.8c-0.3-0.6-0.6-1.2-0.9-1.8
	C-167.8,375.2-168.5,374.1-169.1,373.1z"/>
<path class="st6" d="M-173.9,367.2l-2.9,2.8c0.8,0.8,1.5,1.7,2.3,2.6c0.4,0.5,0.8,1,1.1,1.5l3.3-2.4c-0.4-0.5-0.8-1.1-1.2-1.6
	C-172.1,369-173,368.1-173.9,367.2z"/>
<path class="st5" d="M-179.5,362.2l-2.4,3.2c0.9,0.7,1.8,1.4,2.7,2.1c0.5,0.4,0.9,0.8,1.4,1.3l2.8-2.9c-0.5-0.5-1-0.9-1.5-1.4
	C-177.5,363.8-178.5,363-179.5,362.2z"/>
<path class="st4" d="M-185.9,358.3l-1.8,3.6c1,0.5,2,1,3,1.6c0.5,0.3,1.1,0.7,1.6,1l2.3-3.3c-0.6-0.4-1.1-0.8-1.7-1.1
	C-183.7,359.5-184.8,358.9-185.9,358.3z"/>
<path class="st3" d="M-192.9,355.6l-1.1,3.9c1.1,0.3,2.2,0.7,3.3,1.1c0.6,0.2,1.1,0.5,1.7,0.7l1.6-3.7c-0.6-0.3-1.2-0.5-1.9-0.8
	C-190.5,356.4-191.7,356-192.9,355.6z"/>
<path class="st2" d="M-200.3,354.1l-0.4,4c1.1,0.1,2.3,0.3,3.4,0.5c0.6,0.1,1.2,0.3,1.8,0.4l1-3.9c-0.7-0.2-1.3-0.3-2-0.5
	C-197.8,354.5-199.1,354.3-200.3,354.1z"/>
</svg>
