<?xml version="1.0" encoding="utf-8"?>
<!-- Generator: Adobe Illustrator 19.0.0, SVG Export Plug-In . SVG Version: 6.00 Build 0)  -->
<!DOCTYPE svg PUBLIC "-//W3C//DTD SVG 1.1//EN" "http://www.w3.org/Graphics/SVG/1.1/DTD/svg11.dtd">
<svg version="1.1" id="icon_x5F_hamburger_x5F_cont" onmousedown="top.LIVE.md(event)"
	 xmlns="http://www.w3.org/2000/svg" xmlns:xlink="http://www.w3.org/1999/xlink" x="0px" y="0px" viewBox="-255 347 100 100"
	 style="enable-background:new -255 347 100 100;" xml:space="preserve">
<style type="text/css">
	.st0{fill:#FFFFFF;}
</style>
<path id="icon_x5F_hamburger" class="st0" d="M-171.5,380.1h-67.3c-2.6,0-4.6-2.1-4.6-4.6l0,0c0-2.6,2.1-4.6,4.6-4.6h67.3
	c2.6,0,4.6,2.1,4.6,4.6l0,0C-166.9,378-168.9,380.1-171.5,380.1z"/>
<path id="icon_x5F_hamburger_1_" class="st0" d="M-171.5,402.7h-67.3c-2.6,0-4.6-2.1-4.6-4.6l0,0c0-2.6,2.1-4.6,4.6-4.6h67.3
	c2.6,0,4.6,2.1,4.6,4.6l0,0C-166.9,400.6-168.9,402.7-171.5,402.7z"/>
<path id="icon_x5F_hamburger_2_" class="st0" d="M-171.5,425.3h-67.3c-2.6,0-4.6-2.1-4.6-4.6l0,0c0-2.6,2.1-4.6,4.6-4.6h67.3
	c2.6,0,4.6,2.1,4.6,4.6l0,0C-166.9,423.2-168.9,425.3-171.5,425.3z"/>
</svg>
