<?xml version="1.0" encoding="utf-8"?>
<!-- Generator: Adobe Illustrator 19.0.0, SVG Export Plug-In . SVG Version: 6.00 Build 0)  -->
<!DOCTYPE svg PUBLIC "-//W3C//DTD SVG 1.1//EN" "http://www.w3.org/Graphics/SVG/1.1/DTD/svg11.dtd">
<svg version="1.1" id="Layer_1" xmlns="http://www.w3.org/2000/svg" xmlns:xlink="http://www.w3.org/1999/xlink" x="0px" y="0px"
	 viewBox="-255 347 100 100" style="enable-background:new -255 347 100 100;" xml:space="preserve">
<style type="text/css">
	.st0{fill:#309CEC;}
</style>
<path id="profilemyrun" class="st0" d="M-215.9,372.7c2.2-0.1,4.2,0.4,6,1c2.4,0.8,4.5,2.2,6.4,4c1.4,1.4,2.6,2.9,3.4,4.6
	c1.7,3.4,3.8,6.5,5.7,9.7c1.2,2.1,2.5,4.2,3.8,6.4c0.1,0.2,0.2,0.2,0.4,0.1c1-0.4,1.9-0.9,2.9-1.3c1.7-0.8,3.4-1.5,5.1-2.3
	c1.1-0.5,2.2-1,3.3-1.4c1.2-0.5,2.4-0.8,3.7-1.1c1.4-0.3,2.9-0.3,4.4-0.2c1.1,0.1,2.3,0.5,3.4,0.8c1.3,0.4,2.5,1.1,3.6,2
	c1.6,1.2,2.9,2.7,3.9,4.4c0.8,1.3,1.4,2.7,1.8,4.2c0.4,1.2,0.7,2.4,0.7,3.6c0,1.5,0,3-0.1,4.4c0,0.5-0.2,1.1-0.3,1.6
	c-0.5,2.2-1.4,4.3-2.6,6.2c-1.4,2.2-3.2,4-5.4,5.5c-1.4,1-3,1.7-4.6,2.3c-1.3,0.4-2.6,0.6-4,0.7c-1.3,0-2.6-0.1-3.8-0.4
	c-2.3-0.5-4.4-1.6-6.2-3.1c-1.3-1.1-2.4-2.5-3.3-4c-0.9-1.5-1.6-3.1-2.4-4.7c-0.8-1.6-1.6-3.3-2.4-4.9c-0.4-0.9-0.9-1.8-1.3-2.7
	c-0.1-0.2-0.2-0.2-0.4-0.2c-1.5,0.5-2.9,1-4.4,1.5c-1.4,0.5-2.9,1-4.3,1.5c-1.2,0.4-2.4,0.8-3.6,1.2c-1.3,0.5-2.6,0.9-3.9,1.5
	c-2,0.8-4,1.5-6.1,1.7c-1.5,0.2-3,0.2-4.5,0c-4.4-0.7-8.1-2.7-11-6.1c-1.3-1.5-2.2-3.2-3-5c-0.9-2.2-1.6-4.5-1.7-6.9
	c-0.1-1.2-0.2-2.5-0.1-3.7c0.1-1.6,0.4-3.2,0.9-4.7c0.4-1.2,0.9-2.5,1.4-3.7c1.1-2.4,2.6-4.5,4.4-6.4c1.7-1.7,3.7-3.1,5.9-4.1
	c1-0.5,2-0.9,3-1.2C-219.3,372.9-217.5,372.6-215.9,372.7z M-216.8,407.5c0.9-0.1,1.6-0.2,2.3-0.4c0.6-0.2,1.3-0.4,1.9-0.6
	c1-0.3,2-0.6,3-0.9c1.1-0.3,2.2-0.7,3.3-1c1.3-0.4,2.7-0.8,4-1.2c1-0.3,2.1-0.6,3.1-0.9c0.8-0.2,1.5-0.5,2.3-0.7
	c0.2-0.1,0.4-0.2,0.2-0.4c-0.6-1-1.3-1.9-1.9-2.9c-1.3-2-2.6-4-3.9-6c-1.1-1.7-2.1-3.4-3.2-5.1c-0.3-0.5-0.6-0.9-0.9-1.3
	c-2.2-2.5-4.9-4-8.2-4.5c-1.1-0.2-2.3-0.1-3.4,0.1c-1.4,0.3-2.7,0.8-3.9,1.6c-2.5,1.5-4.2,3.5-5.4,6.1c-0.6,1.3-1,2.7-1.2,4.2
	c-0.2,1.4-0.1,2.8,0.2,4.2c0.2,1,0.6,2,1,2.9c0.9,2.1,2.2,3.7,4.2,4.9c1.2,0.7,2.4,1.2,3.7,1.5
	C-218.7,407.1-217.7,407.3-216.8,407.5z M-163.9,409c-0.1-0.5-0.1-1.3-0.3-2.1c-0.6-2.5-1.7-4.7-4-6.2c-1.4-0.9-2.9-1.5-4.6-1.5
	c-1.5,0-2.9,0.4-4.2,0.9c-0.9,0.4-1.8,0.8-2.7,1.2c-1.8,0.8-3.6,1.6-5.4,2.3c-0.8,0.3-1.6,0.6-2.3,1c-0.1,0-0.2,0.3-0.1,0.4
	c0.5,1.1,1.1,2.3,1.7,3.4c0.7,1.4,1.3,2.8,2,4.2c0.7,1.3,1.3,2.7,2.1,4c1.5,2.4,3.8,3.7,6.6,4c2.7,0.3,5-0.8,7.1-2.4
	C-165.3,415.9-164.1,412.8-163.9,409z M-245.4,405.6c2-0.5,3.7-1.6,5.1-3.1c0.9-1,1.6-2.2,1.3-3.7c-0.1-0.4-0.2-0.8-0.4-1.1
	c-0.3-0.4-0.7-0.9-1.2-1.2c-1.3-0.9-2.8-1.3-4.3-1.4c-1.4-0.1-2.7,0.1-4,0.6c-1.1,0.5-2.2,1.1-2.9,2.1c-0.3,0.4-0.5,0.8-0.7,1.3
	c-0.3,1.2-0.2,2.4,0.3,3.6c0.4,1.1,1.1,2,2.2,2.5c0.9,0.4,1.8,0.6,2.8,0.6C-246.5,405.7-245.9,405.7-245.4,405.6z M-244,391.1
	c1.3-0.3,2.5-0.9,3.3-2c0.8-1,0.9-1.7,0.4-2.5c-0.2-0.3-0.4-0.5-0.6-0.8c-0.9-0.9-2-1.3-3.2-1.5c-0.4-0.1-0.7-0.2-1.1-0.1
	c-0.7,0.1-1.4,0.2-2,0.4c-2.2,0.6-3.1,3.7-1.5,5.4c0.9,1,2.1,1.3,3.6,1.4C-244.9,391.3-244.5,391.2-244,391.1z M-238.5,381.9
	c0.9-0.6,1.3-1.5,0.9-2.4c-0.1-0.4-0.4-0.7-0.6-1c-1.1-1.3-2.5-2-4.2-2c-0.5,0-1.1,0.1-1.6,0.3c-1.2,0.5-1.5,1.6-1.6,2.7
	c0,0.5,0.1,1.1,0.4,1.5c0.9,1.3,2.3,1.8,3.6,1.8C-240.3,382.7-239.4,382.5-238.5,381.9z M-233.9,376.6c1.4-0.2,2-1,1.8-2.4
	c-0.3-2-1.5-3.4-3.4-4.1c-0.9-0.3-1.8-0.3-2.6,0.3c-1.1,0.8-1.7,2.4-0.9,3.7c1,1.7,2.5,2.5,4.4,2.5
	C-234.4,376.6-234.2,376.6-233.9,376.6z M-230.1,366.3c-1.4,0.7-2.2,2-1.2,3.7c0.7,1.2,1.8,1.9,3.2,2.1c1.5,0.3,2.6-0.5,2.4-2.2
	c-0.1-0.6-0.3-1.3-0.6-1.8c-0.6-1.1-1.5-1.9-2.9-2C-229.5,366.2-229.9,366.2-230.1,366.3z"/>
</svg>
