<?xml version="1.0" encoding="utf-8"?>
<!-- Generator: Adobe Illustrator 19.0.0, SVG Export Plug-In . SVG Version: 6.00 Build 0)  -->
<!DOCTYPE svg PUBLIC "-//W3C//DTD SVG 1.1//EN" "http://www.w3.org/Graphics/SVG/1.1/DTD/svg11.dtd">
<svg version="1.1" id="icon_x5F_hamburger_x5F_cont" onmousedown="top.LIVE.md(event)"
	 xmlns="http://www.w3.org/2000/svg" xmlns:xlink="http://www.w3.org/1999/xlink" x="0px" y="0px" viewBox="-255 347 100 100"
	 style="enable-background:new -255 347 100 100;" xml:space="preserve">
<style type="text/css">
	.st0{display:none;}
	.st1{display:inline;fill:#00FF00;}
	.st2{fill:#2F9BEB;}
</style>
<g class="st0">
	<path class="st1" d="M-246.4,384.9l3.9,1.1c0.3-1.1,0.7-2.2,1.1-3.3c0.2-0.6,0.5-1.1,0.7-1.7l-3.7-1.6c-0.3,0.6-0.5,1.2-0.8,1.9
		C-245.6,382.5-246,383.7-246.4,384.9z"/>
	<path class="st1" d="M-247.9,392.3l4,0.4c0.1-1.1,0.3-2.3,0.5-3.4c0.1-0.6,0.3-1.2,0.4-1.8l-3.9-1c-0.2,0.7-0.3,1.3-0.5,2
		C-247.5,389.8-247.7,391.1-247.9,392.3z"/>
	<path class="st1" d="M-248,399.8l4-0.3c-0.1-1.1-0.1-2.3-0.1-3.4c0-0.6,0-1.2,0.1-1.9l-4-0.3c0,0.7-0.1,1.4-0.1,2
		C-248.1,397.3-248.1,398.6-248,399.8z"/>
	<path class="st1" d="M-246.9,407.2l3.9-1c-0.3-1.1-0.5-2.2-0.7-3.4c-0.1-0.6-0.2-1.2-0.2-1.8l-4,0.4c0.1,0.7,0.2,1.4,0.3,2
		C-247.4,404.8-247.2,406-246.9,407.2z"/>
	<path class="st1" d="M-244.5,414.4l3.7-1.6c-0.5-1-0.9-2.1-1.3-3.2c-0.2-0.6-0.4-1.2-0.6-1.8l-3.9,1.1c0.2,0.7,0.4,1.3,0.6,2
		C-245.4,412-245,413.2-244.5,414.4z"/>
	<path class="st1" d="M-240.9,420.9l3.3-2.2c-0.6-0.9-1.2-1.9-1.8-2.9c-0.3-0.5-0.6-1.1-0.9-1.7l-3.6,1.8c0.3,0.6,0.6,1.2,0.9,1.8
		C-242.2,418.8-241.5,419.9-240.9,420.9z"/>
	<path class="st1" d="M-236.1,426.8l2.9-2.8c-0.8-0.8-1.5-1.7-2.3-2.6c-0.4-0.5-0.8-1-1.1-1.5l-3.3,2.4c0.4,0.5,0.8,1.1,1.2,1.6
		C-237.9,425-237,425.9-236.1,426.8z"/>
	<path class="st1" d="M-230.5,431.8l2.4-3.2c-0.9-0.7-1.8-1.4-2.7-2.1c-0.5-0.4-0.9-0.8-1.4-1.3l-2.8,2.9c0.5,0.5,1,0.9,1.5,1.4
		C-232.5,430.2-231.5,431-230.5,431.8z"/>
	<path class="st1" d="M-224.1,435.7l1.8-3.6c-1-0.5-2-1-3-1.6c-0.5-0.3-1.1-0.7-1.6-1l-2.3,3.3c0.6,0.4,1.1,0.8,1.7,1.1
		C-226.3,434.5-225.2,435.1-224.1,435.7z"/>
	<path class="st1" d="M-217.1,438.4l1.1-3.9c-1.1-0.3-2.2-0.7-3.3-1.1c-0.6-0.2-1.1-0.5-1.7-0.7l-1.6,3.7c0.6,0.3,1.2,0.5,1.9,0.8
		C-219.5,437.6-218.3,438-217.1,438.4z"/>
	<path class="st1" d="M-209.7,439.9l0.4-4c-1.1-0.1-2.3-0.3-3.4-0.5c-0.6-0.1-1.2-0.3-1.8-0.4l-1,3.9c0.7,0.2,1.3,0.3,2,0.5
		C-212.2,439.5-210.9,439.7-209.7,439.9z"/>
	<path class="st1" d="M-202.2,440l-0.3-4c-1.1,0.1-2.3,0.1-3.4,0.1c-0.6,0-1.2,0-1.9-0.1l-0.3,4c0.7,0,1.4,0.1,2,0.1
		C-204.7,440.1-203.4,440.1-202.2,440z"/>
	<path class="st1" d="M-194.8,438.9l-1-3.9c-1.1,0.3-2.2,0.5-3.4,0.7c-0.6,0.1-1.2,0.2-1.8,0.2l0.4,4c0.7-0.1,1.4-0.2,2-0.3
		C-197.2,439.4-196,439.2-194.8,438.9z"/>
	<path class="st1" d="M-187.6,436.5l-1.6-3.7c-1,0.5-2.1,0.9-3.2,1.3c-0.6,0.2-1.2,0.4-1.8,0.6l1.1,3.9c0.7-0.2,1.3-0.4,2-0.6
		C-190,437.4-188.8,437-187.6,436.5z"/>
	<path class="st1" d="M-181.1,432.9l-2.2-3.3c-0.9,0.6-1.9,1.2-2.9,1.8c-0.5,0.3-1.1,0.6-1.7,0.9l1.8,3.6c0.6-0.3,1.2-0.6,1.8-0.9
		C-183.2,434.2-182.1,433.5-181.1,432.9z"/>
	<path class="st1" d="M-175.2,428.1l-2.8-2.9c-0.8,0.8-1.7,1.5-2.6,2.3c-0.5,0.4-1,0.8-1.5,1.1l2.4,3.3c0.5-0.4,1.1-0.8,1.6-1.2
		C-177,429.9-176.1,429-175.2,428.1z"/>
	<path class="st1" d="M-170.2,422.5l-3.2-2.4c-0.7,0.9-1.4,1.8-2.1,2.7c-0.4,0.5-0.8,0.9-1.3,1.4l2.9,2.8c0.5-0.5,0.9-1,1.4-1.5
		C-171.8,424.5-171,423.5-170.2,422.5z"/>
	<path class="st1" d="M-166.3,416.1l-3.6-1.8c-0.5,1-1,2-1.6,3c-0.3,0.5-0.7,1.1-1,1.6l3.3,2.3c0.4-0.6,0.8-1.1,1.1-1.7
		C-167.5,418.3-166.9,417.2-166.3,416.1z"/>
	<path class="st1" d="M-163.6,409.1l-3.9-1.1c-0.3,1.1-0.7,2.2-1.1,3.3c-0.2,0.6-0.5,1.1-0.7,1.7l3.7,1.6c0.3-0.6,0.5-1.2,0.8-1.9
		C-164.4,411.5-164,410.3-163.6,409.1z"/>
	<path class="st1" d="M-162.1,401.7l-4-0.4c-0.1,1.1-0.3,2.3-0.5,3.4c-0.1,0.6-0.3,1.2-0.4,1.8l3.9,1c0.2-0.7,0.3-1.3,0.5-2
		C-162.5,404.2-162.3,402.9-162.1,401.7z"/>
	<path class="st1" d="M-162,394.2l-4,0.3c0.1,1.1,0.1,2.3,0.1,3.4c0,0.6,0,1.2-0.1,1.9l4,0.3c0-0.7,0.1-1.4,0.1-2
		C-161.9,396.7-161.9,395.4-162,394.2z"/>
	<path class="st1" d="M-163.1,386.8l-3.9,1c0.3,1.1,0.5,2.2,0.7,3.4c0.1,0.6,0.2,1.2,0.2,1.8l4-0.4c-0.1-0.7-0.2-1.4-0.3-2
		C-162.6,389.2-162.8,388-163.1,386.8z"/>
	<path class="st1" d="M-165.5,379.6l-3.7,1.6c0.5,1,0.9,2.1,1.3,3.2c0.2,0.6,0.4,1.2,0.6,1.8l3.9-1.1c-0.2-0.7-0.4-1.3-0.6-2
		C-164.6,382-165,380.8-165.5,379.6z"/>
</g>
<path class="st2" d="M-203.3,393.3l2-2.8l-3.7-40l-3.9,40l2.2,2.8c-1.4,0.7-2.3,2-2.3,3.6c0,2.2,1.8,4.1,4.1,4.1s4.1-1.8,4.1-4.1
	C-200.9,395.4-201.9,393.9-203.3,393.3z"/>
</svg>
