<?xml version="1.0" encoding="utf-8"?>
<!-- Generator: Adobe Illustrator 19.0.0, SVG Export Plug-In . SVG Version: 6.00 Build 0)  -->
<!DOCTYPE svg PUBLIC "-//W3C//DTD SVG 1.1//EN" "http://www.w3.org/Graphics/SVG/1.1/DTD/svg11.dtd">
<svg version="1.1" id="icon_x5F_hamburger_x5F_cont" onmousedown="top.LIVE.md(event)"
	 xmlns="http://www.w3.org/2000/svg" xmlns:xlink="http://www.w3.org/1999/xlink" x="0px" y="0px" viewBox="-255 347 100 100"
	 style="enable-background:new -255 347 100 100;" xml:space="preserve">
<style type="text/css">
	.st0{display:none;}
	.st1{display:inline;fill:#00FF00;}
	.st2{fill:#FFFFFF;}
</style>
<g class="st0">
	<path class="st1" d="M-501.4,731.9l3.9,1.1c0.3-1.1,0.7-2.2,1.1-3.3c0.2-0.6,0.5-1.1,0.7-1.7l-3.7-1.6c-0.3,0.6-0.5,1.2-0.8,1.9
		C-500.6,729.5-501,730.7-501.4,731.9z"/>
	<path class="st1" d="M-502.9,739.3l4,0.4c0.1-1.1,0.3-2.3,0.5-3.4c0.1-0.6,0.3-1.2,0.4-1.8l-3.9-1c-0.2,0.7-0.3,1.3-0.5,2
		C-502.5,736.8-502.7,738.1-502.9,739.3z"/>
	<path class="st1" d="M-503,746.8l4-0.3c-0.1-1.1-0.1-2.3-0.1-3.4c0-0.6,0-1.2,0.1-1.9l-4-0.3c0,0.7-0.1,1.4-0.1,2
		C-503.1,744.3-503.1,745.6-503,746.8z"/>
	<path class="st1" d="M-501.9,754.2l3.9-1c-0.3-1.1-0.5-2.2-0.7-3.4c-0.1-0.6-0.2-1.2-0.2-1.8l-4,0.4c0.1,0.7,0.2,1.4,0.3,2
		C-502.4,751.8-502.2,753-501.9,754.2z"/>
	<path class="st1" d="M-499.5,761.4l3.7-1.6c-0.5-1-0.9-2.1-1.3-3.2c-0.2-0.6-0.4-1.2-0.6-1.8l-3.9,1.1c0.2,0.7,0.4,1.3,0.6,2
		C-500.4,759-500,760.2-499.5,761.4z"/>
	<path class="st1" d="M-495.9,767.9l3.3-2.2c-0.6-0.9-1.2-1.9-1.8-2.9c-0.3-0.5-0.6-1.1-0.9-1.7l-3.6,1.8c0.3,0.6,0.6,1.2,0.9,1.8
		C-497.2,765.8-496.5,766.9-495.9,767.9z"/>
	<path class="st1" d="M-491.1,773.8l2.9-2.8c-0.8-0.8-1.5-1.7-2.3-2.6c-0.4-0.5-0.8-1-1.1-1.5l-3.3,2.4c0.4,0.5,0.8,1.1,1.2,1.6
		C-492.9,772-492,772.9-491.1,773.8z"/>
	<path class="st1" d="M-485.5,778.8l2.4-3.2c-0.9-0.7-1.8-1.4-2.7-2.1c-0.5-0.4-0.9-0.8-1.4-1.3l-2.8,2.9c0.5,0.5,1,0.9,1.5,1.4
		C-487.5,777.2-486.5,778-485.5,778.8z"/>
	<path class="st1" d="M-479.1,782.7l1.8-3.6c-1-0.5-2-1-3-1.6c-0.5-0.3-1.1-0.7-1.6-1l-2.3,3.3c0.6,0.4,1.1,0.8,1.7,1.1
		C-481.3,781.5-480.2,782.1-479.1,782.7z"/>
	<path class="st1" d="M-472.1,785.4l1.1-3.9c-1.1-0.3-2.2-0.7-3.3-1.1c-0.6-0.2-1.1-0.5-1.7-0.7l-1.6,3.7c0.6,0.3,1.2,0.5,1.9,0.8
		C-474.5,784.6-473.3,785-472.1,785.4z"/>
	<path class="st1" d="M-464.7,786.9l0.4-4c-1.1-0.1-2.3-0.3-3.4-0.5c-0.6-0.1-1.2-0.3-1.8-0.4l-1,3.9c0.7,0.2,1.3,0.3,2,0.5
		C-467.2,786.5-465.9,786.7-464.7,786.9z"/>
	<path class="st1" d="M-457.2,787l-0.3-4c-1.1,0.1-2.3,0.1-3.4,0.1c-0.6,0-1.2,0-1.9-0.1l-0.3,4c0.7,0,1.4,0.1,2,0.1
		C-459.7,787.1-458.4,787.1-457.2,787z"/>
	<path class="st1" d="M-449.8,785.9l-1-3.9c-1.1,0.3-2.2,0.5-3.4,0.7c-0.6,0.1-1.2,0.2-1.8,0.2l0.4,4c0.7-0.1,1.4-0.2,2-0.3
		C-452.2,786.4-451,786.2-449.8,785.9z"/>
	<path class="st1" d="M-442.6,783.5l-1.6-3.7c-1,0.5-2.1,0.9-3.2,1.3c-0.6,0.2-1.2,0.4-1.8,0.6l1.1,3.9c0.7-0.2,1.3-0.4,2-0.6
		C-445,784.4-443.8,784-442.6,783.5z"/>
	<path class="st1" d="M-436.1,779.9l-2.2-3.3c-0.9,0.6-1.9,1.2-2.9,1.8c-0.5,0.3-1.1,0.6-1.7,0.9l1.8,3.6c0.6-0.3,1.2-0.6,1.8-0.9
		C-438.2,781.2-437.1,780.5-436.1,779.9z"/>
	<path class="st1" d="M-430.2,775.1l-2.8-2.9c-0.8,0.8-1.7,1.5-2.6,2.3c-0.5,0.4-1,0.8-1.5,1.1l2.4,3.3c0.5-0.4,1.1-0.8,1.6-1.2
		C-432,776.9-431.1,776-430.2,775.1z"/>
	<path class="st1" d="M-425.2,769.5l-3.2-2.4c-0.7,0.9-1.4,1.8-2.1,2.7c-0.4,0.5-0.8,0.9-1.3,1.4l2.9,2.8c0.5-0.5,0.9-1,1.4-1.5
		C-426.8,771.5-426,770.5-425.2,769.5z"/>
	<path class="st1" d="M-421.3,763.1l-3.6-1.8c-0.5,1-1,2-1.6,3c-0.3,0.5-0.7,1.1-1,1.6l3.3,2.3c0.4-0.6,0.8-1.1,1.1-1.7
		C-422.5,765.3-421.9,764.2-421.3,763.1z"/>
	<path class="st1" d="M-418.6,756.1l-3.9-1.1c-0.3,1.1-0.7,2.2-1.1,3.3c-0.2,0.6-0.5,1.1-0.7,1.7l3.7,1.6c0.3-0.6,0.5-1.2,0.8-1.9
		C-419.4,758.5-419,757.3-418.6,756.1z"/>
	<path class="st1" d="M-417.1,748.7l-4-0.4c-0.1,1.1-0.3,2.3-0.5,3.4c-0.1,0.6-0.3,1.2-0.4,1.8l3.9,1c0.2-0.7,0.3-1.3,0.5-2
		C-417.5,751.2-417.3,749.9-417.1,748.7z"/>
	<path class="st1" d="M-417,741.2l-4,0.3c0.1,1.1,0.1,2.3,0.1,3.4c0,0.6,0,1.2-0.1,1.9l4,0.3c0-0.7,0.1-1.4,0.1-2
		C-416.9,743.7-416.9,742.4-417,741.2z"/>
	<path class="st1" d="M-418.1,733.8l-3.9,1c0.3,1.1,0.5,2.2,0.7,3.4c0.1,0.6,0.2,1.2,0.2,1.8l4-0.4c-0.1-0.7-0.2-1.4-0.3-2
		C-417.6,736.2-417.8,735-418.1,733.8z"/>
	<path class="st1" d="M-420.5,726.6l-3.7,1.6c0.5,1,0.9,2.1,1.3,3.2c0.2,0.6,0.4,1.2,0.6,1.8l3.9-1.1c-0.2-0.7-0.4-1.3-0.6-2
		C-419.6,729-420,727.8-420.5,726.6z"/>
</g>
<path class="st2" d="M-203.4,393.5l-0.1-2.8l-1.6-40l-1.6,40l-0.1,2.8c-1.4,0.7-2.3,2-2.3,3.6c0,2.2,1.8,4.1,4.1,4.1
	s4.1-1.8,4.1-4.1C-201,395.6-202,394.1-203.4,393.5z"/>
</svg>
